<svg width="97" height="94" viewBox="0 0 97 94" fill="none" xmlns="http://www.w3.org/2000/svg">
<g opacity="0.1">
<path d="M59.9403 30.3675H54.8376V10.0241C54.8376 9.0804 53.3035 6.97846 52.5224 6.34443C48.3616 2.96455 41.5704 6.06318 41.5704 11.2576V44.1781H59.9403V84.0027C59.9403 84.8291 58.918 86.9459 58.4521 87.7427C53.9608 95.435 42.2047 95.3314 37.9507 87.4997C37.6802 87.0014 36.7216 84.6416 36.7216 84.2494V62.9191H41.5691V82.0302C41.5691 82.3978 41.9788 83.9805 42.137 84.4406C43.5908 88.6568 49.5205 89.8323 52.8504 86.8398C53.3979 86.3476 54.8363 84.1346 54.8363 83.5105V49.111H36.7216V11.0096C36.7216 0.941557 49.8459 -3.7915 56.8835 3.60599C57.9263 4.7026 59.939 8.10961 59.939 9.52941V30.3662L59.9403 30.3675Z" fill="#FDFEFF"/>
<path d="M65.043 57.9862V53.0545H86.3471C86.9942 53.0545 89.2827 51.6643 89.7919 51.1351C92.878 47.928 91.7179 42.4104 87.492 40.8512C87.0427 40.6859 85.4282 40.232 85.0721 40.232H46.673V35.6704C46.673 35.6444 47.0291 35.3003 47.0559 35.3003H85.5826C95.0937 35.3003 100.236 47.6998 93.4983 54.5397C92.3114 55.7448 88.5194 57.9862 86.859 57.9862H65.0443H65.043Z" fill="#FDFEFF"/>
<path d="M31.619 40.2307H11.5911C6.11446 40.2307 3.14066 46.7278 6.51139 50.812C7.17635 51.6187 9.29885 53.0533 10.3161 53.0533H49.7362V57.985H9.54901C6.1336 57.985 1.71119 53.5566 0.625048 50.5813C-1.84844 43.8068 3.30275 35.2979 11.0806 35.2979H31.2374C31.2642 35.2979 31.6202 35.642 31.6202 35.6679V40.2295L31.619 40.2307Z" fill="#FDFEFF"/>
</g>
</svg>
