<svg width="60" height="60" viewBox="0 0 60 60" fill="none" xmlns="http://www.w3.org/2000/svg">
<path d="M32.28 38.6399L28.2 34.5599C27.72 34.0799 27 34.0799 26.52 34.5599C26.04 35.0399 26.04 35.7599 26.52 36.2399L31.44 41.1599C31.68 41.3999 32.04 41.5199 32.28 41.5199C32.64 41.5199 32.88 41.3999 33.12 41.1599L43.08 31.1999C43.56 30.7199 43.56 29.9999 43.08 29.5199C42.6 29.0399 41.88 29.0399 41.4 29.5199L32.28 38.6399Z" fill="#01A1DE"/>
<path d="M57.12 49.0799L48.96 40.9199C49.56 39.4799 50.04 37.9199 50.16 36.3599C50.52 32.2799 49.32 28.1999 46.68 25.0799C45.24 23.2799 43.44 21.9599 41.4 21V14.76C41.4 11.88 39 9.47995 36 9.47995H32.76V7.79995C32.76 5.99995 31.32 4.55995 29.4 4.55995H25.8C25.2 2.63995 23.4 1.19995 21.36 1.19995C19.2 1.19995 17.52 2.63995 16.92 4.43995H13.32C11.4 4.55995 9.96003 5.99995 9.96003 7.79995V9.47995H6.72003C3.72003 9.47995 1.32003 11.88 1.32003 14.76V53.5199C1.20003 56.3999 3.72003 58.7999 6.72003 58.7999H36C39 58.7999 41.4 56.3999 41.4 53.3999V49.5599L48.96 57.1199C51.12 59.2799 54.72 59.3999 57 57.1199C59.28 54.8399 59.4 51.2399 57.12 49.0799ZM44.88 26.52C47.04 29.16 48.12 32.6399 47.76 36C47.28 40.9199 44.16 45 39.84 46.7999C39.84 46.7999 39.84 46.7999 39.72 46.7999C37.8 47.6399 35.76 47.8799 33.48 47.7599C26.28 47.0399 21.12 40.6799 21.84 33.4799C22.2 30.1199 23.76 27.1199 26.16 24.9599C26.16 24.9599 26.16 24.96 26.28 24.84C28.92 22.56 32.52 21.36 36.12 21.7199C37.44 21.84 38.64 22.1999 39.84 22.6799C41.76 23.6399 43.44 24.84 44.88 26.52ZM12.36 7.79995C12.36 7.31995 12.84 6.95995 13.32 6.95995H18C18.72 6.95995 19.2 6.47995 19.2 5.75995C19.2 4.55995 20.16 3.71995 21.36 3.71995C22.56 3.71995 23.64 4.67995 23.64 5.75995C23.64 6.47995 24.12 6.95995 24.84 6.95995H29.52C30 6.95995 30.48 7.31995 30.48 7.79995V13.56C30.48 14.04 30 14.4 29.52 14.4H13.32C12.84 14.4 12.36 14.04 12.36 13.56V7.79995ZM36 56.3999H6.72003C5.04003 56.3999 3.60003 55.0799 3.60003 53.5199V14.76C3.60003 13.2 4.92003 11.88 6.60003 11.88H9.84003V13.56C9.84003 15.36 11.28 16.8 13.2 16.8H29.4C31.2 16.8 32.76 15.36 32.76 13.56V11.88H36C37.68 11.88 39 13.2 39 14.76V20.04C38.16 19.8 37.2 19.5599 36.24 19.5599C31.92 19.0799 27.96 20.52 24.84 23.04H10.44C9.72003 23.04 9.24003 23.52 9.24003 24.24C9.24003 24.96 9.72003 25.44 10.44 25.44H22.56C21.72 26.52 21.12 27.6 20.52 28.92H10.56C9.84003 28.92 9.36003 29.4 9.36003 30.1199C9.36003 30.84 9.84003 31.32 10.56 31.32H19.92C19.8 32.0399 19.56 32.7599 19.56 33.4799V34.7999H10.56C9.84003 34.7999 9.36003 35.2799 9.36003 36C9.36003 36.7199 9.84003 37.1999 10.56 37.1999H19.56C19.68 38.3999 20.04 39.4799 20.4 40.68H10.56C9.84003 40.68 9.36003 41.16 9.36003 41.88C9.36003 42.5999 9.84003 43.08 10.56 43.08H21.6C22.32 44.4 23.28 45.4799 24.36 46.4399H10.56C9.84003 46.4399 9.36003 46.9199 9.36003 47.6399C9.36003 48.36 9.84003 48.84 10.56 48.84H27.96C29.64 49.68 31.32 50.1599 33.24 50.3999C35.16 50.6399 37.08 50.3999 39 49.9199V53.6399C39.12 54.9599 37.68 56.3999 36 56.3999ZM55.44 55.4399C54.12 56.7599 52.08 56.7599 50.76 55.4399L43.08 47.88C45 46.68 46.56 45.1199 47.76 43.1999L55.32 50.7599C56.76 52.0799 56.76 54.1199 55.44 55.4399Z" fill="#01A1DE"/>
</svg>
