<svg width="60" height="60" viewBox="0 0 60 60" fill="none" xmlns="http://www.w3.org/2000/svg">
<path d="M22.5 57.0352H28.0195C28.5117 57.0352 28.9101 56.6367 28.9101 56.1445C28.9101 55.6523 28.5117 55.2539 28.0195 55.2539H22.5C22.0078 55.2539 21.6094 55.6523 21.6094 56.1445C21.6094 56.6367 22.0078 57.0352 22.5 57.0352ZM26.6484 29.2031C26.1562 29.2031 25.7461 29.6016 25.7461 30.1055V31.8633C25.7461 32.3555 26.1445 32.7656 26.6484 32.7656C27.1523 32.7656 27.5508 32.3672 27.5508 31.8633V30.1055C27.5508 29.6016 27.1523 29.2031 26.6484 29.2031ZM26.6484 33.7266C26.1562 33.7266 25.7461 34.125 25.7461 34.6289V36.3867C25.7461 36.8789 26.1445 37.2891 26.6484 37.2891C27.1523 37.2891 27.5508 36.8906 27.5508 36.3867V34.6289C27.5508 34.1367 27.1523 33.7266 26.6484 33.7266ZM17.2617 23.3203L18.8554 24.0117C18.9726 24.0586 19.0898 24.082 19.207 24.082C19.5586 24.082 19.8867 23.8828 20.039 23.543C20.2383 23.0859 20.0273 22.5586 19.5703 22.3594L17.9765 21.668C17.5195 21.4688 16.9922 21.6797 16.7929 22.1367C16.6054 22.5938 16.8047 23.1211 17.2617 23.3203ZM21.3515 25.0898L22.9453 25.7812C23.0625 25.8281 23.1797 25.8516 23.2969 25.8516C23.6484 25.8516 23.9765 25.6523 24.1289 25.3125C24.3281 24.8555 24.1172 24.3281 23.6601 24.1289L22.0664 23.4375C21.6094 23.2383 21.082 23.4492 20.8828 23.9062C20.6836 24.3633 20.8945 24.8906 21.3515 25.0898ZM27.0117 25.5703L26.1562 25.1953C25.6992 24.9961 25.1719 25.207 24.9726 25.6641C24.8906 25.8516 24.8789 26.0508 24.9258 26.2383L24.5742 26.3906C24.1172 26.5898 23.9062 27.1172 24.1054 27.5742C24.2578 27.9141 24.5859 28.1133 24.9258 28.1133C25.0429 28.1133 25.1719 28.0898 25.289 28.043L25.875 27.7852C26.0273 28.0547 26.3203 28.2305 26.6484 28.2305C27.1406 28.2305 27.5508 27.832 27.5508 27.3281V26.3906C27.5508 26.0391 27.3398 25.7109 27.0117 25.5703ZM22.4883 11.6484H28.0078C28.5 11.6484 28.8984 11.25 28.8984 10.7578C28.8984 10.2656 28.5 9.86719 28.0078 9.86719H22.4883C21.9961 9.86719 21.5976 10.2656 21.5976 10.7578C21.5976 11.25 21.9961 11.6484 22.4883 11.6484ZM18.6445 29.9648C18.4453 29.5078 17.9179 29.2969 17.4609 29.4961L15.75 30.2461C15.2929 30.4453 15.082 30.9727 15.2812 31.4297C15.4336 31.7695 15.7617 31.9687 16.1015 31.9687C16.2187 31.9687 16.3476 31.9453 16.4648 31.8984L18.1758 31.1484C18.6328 30.9609 18.8437 30.4219 18.6445 29.9648ZM52.0078 39.2227C52.5 39.2227 52.8984 38.8242 52.8984 38.332C52.8984 37.8398 52.5 37.4414 52.0078 37.4414H51.2226C50.7304 37.4414 50.332 37.8398 50.332 38.332C50.332 38.8242 50.7304 39.2227 51.2226 39.2227H52.0078ZM43.8281 45.3398H48.9258C49.4179 45.3398 49.8164 44.9414 49.8164 44.4492C49.8164 43.957 49.4179 43.5586 48.9258 43.5586H43.8281C43.3359 43.5586 42.9375 43.957 42.9375 44.4492C42.9375 44.9414 43.3359 45.3398 43.8281 45.3398ZM43.8281 39.2344H48.9258C49.4179 39.2344 49.8164 38.8359 49.8164 38.3438C49.8164 37.8516 49.4179 37.4531 48.9258 37.4531H43.8281C43.3359 37.4531 42.9375 37.8516 42.9375 38.3438C42.9375 38.8359 43.3359 39.2344 43.8281 39.2344ZM51.2344 45.3398H52.0195C52.5117 45.3398 52.9101 44.9414 52.9101 44.4492C52.9101 43.957 52.5117 43.5586 52.0195 43.5586H51.2344C50.7422 43.5586 50.3437 43.957 50.3437 44.4492C50.3437 44.9414 50.7422 45.3398 51.2344 45.3398ZM18.9492 42.5039L17.3906 43.1953C16.9336 43.3945 16.7344 43.9219 16.9336 44.3789C17.1562 44.8711 17.7187 45.0352 18.1172 44.8359L19.6758 44.1445C20.1328 43.9453 20.332 43.418 20.1328 42.9609C19.9453 42.5039 19.4062 42.3047 18.9492 42.5039ZM43.8281 42.293H44.6133C45.1054 42.293 45.5039 41.8945 45.5039 41.4023C45.5039 40.9102 45.1054 40.5117 44.6133 40.5117H43.8281C43.3359 40.5117 42.9375 40.9102 42.9375 41.4023C42.9375 41.8945 43.3359 42.293 43.8281 42.293ZM52.8984 41.3906C52.8984 40.8984 52.5 40.5 52.0078 40.5H46.9101C46.4179 40.5 46.0195 40.8984 46.0195 41.3906C46.0195 41.8828 46.4179 42.2812 46.9101 42.2812H52.0078C52.5 42.2812 52.8984 41.8828 52.8984 41.3906ZM23.0508 28.043C22.8515 27.5859 22.3242 27.375 21.8672 27.5742L20.1562 28.3242C19.6992 28.5234 19.4883 29.0508 19.6875 29.5078C19.8398 29.8477 20.1679 30.0469 20.5078 30.0469C20.625 30.0469 20.7539 30.0234 20.8711 29.9766L22.582 29.2266C23.039 29.0273 23.25 28.5 23.0508 28.043ZM57.6679 1.04297C56.9883 0.375 56.0976 0 55.1484 0L36.3398 0.0117188C34.3828 0.0117188 32.7773 1.60547 32.7773 3.57422V6.51562L13.6875 6.52734C11.7773 6.52734 10.2304 8.07422 10.2304 9.98438V21.9375L1.83982 25.6055C1.59373 25.7109 1.41795 25.9219 1.33592 26.168C1.28904 26.3086 1.28904 25.4648 1.30076 40.125C1.30076 40.4883 1.5117 40.8047 1.83982 40.9453L10.2304 44.6133V56.543C10.2304 58.4531 11.7773 60 13.6875 60L37.1719 59.9883C37.7109 59.9883 38.2148 59.8594 38.6719 59.6484C39.832 59.0859 40.6289 57.9023 40.6289 56.5312V48.457H52.0781C52.5703 48.457 52.9687 48.0586 52.9687 47.5664C52.9687 47.0742 52.5703 46.6758 52.0781 46.6758H40.6289L40.6172 17.6719C40.6875 17.6719 40.7461 17.6602 40.8164 17.6602L55.1367 17.6484C56.0859 17.6484 56.9765 17.2734 57.6562 16.6055C58.3242 15.9375 58.6992 15.0352 58.6992 14.0859L58.7109 3.5625C58.7109 2.61328 58.3359 1.72266 57.6679 1.04297ZM10.2422 42.6445L3.11717 39.5273V27.832L10.2422 30.9609V42.6445ZM10.2539 28.9922L4.41795 26.4375L10.2539 23.8945V28.9922ZM38.8711 56.5312C38.8828 57.457 38.1328 58.2188 37.207 58.2188C11.9648 58.2188 13.6406 58.2305 13.5469 58.207C12.7031 58.125 12.0351 57.4102 12.0351 56.543V54.0703L38.8711 54.0586V56.5312ZM38.8828 52.3125L12.0469 52.3242L12.0351 45.3984C13.9804 46.2422 14.2383 46.5 14.8008 46.3008L15.6562 45.9258C16.1133 45.7266 16.3125 45.1992 16.1133 44.7422C15.914 44.2852 15.3867 44.0859 14.9297 44.2852L14.4375 44.5078L12.0351 43.4414V31.7578L13.0547 32.2031C13.1719 32.25 13.289 32.2734 13.4179 32.2734C13.7695 32.2734 14.0976 32.0742 14.2383 31.7344C14.4375 31.2773 14.2265 30.75 13.7695 30.5508L12.0586 29.8008C12.0469 29.8008 12.0469 29.7891 12.0351 29.7891V23.1094L14.2969 22.043C14.6484 22.1836 14.8242 22.3242 15.1289 22.3242C16.1133 22.3242 16.3828 20.9883 15.4922 20.6016L14.6367 20.2266C14.625 20.2266 14.2734 20.0742 13.8867 20.25L12.0234 21.1289V9.99609C12.0234 9.07031 12.7734 8.32031 13.6992 8.32031L32.789 8.30859V21.457C32.789 21.7969 32.9765 22.0898 33.2812 22.2422H33.2929C33.6679 22.3945 33.9844 22.3242 34.207 22.1133L38.3203 18.6094C38.4844 18.4688 38.6719 18.3398 38.8594 18.2227L38.8711 46.6875H29.0859L25.3125 41.25C25.8867 41.625 26.414 41.1328 27.0117 40.9336C27.3398 40.793 27.5508 40.4648 27.5508 40.1133V39.1758C27.5508 38.6836 27.1406 38.2617 26.6367 38.2734C26.1328 38.2852 25.7461 38.7188 25.7461 39.2109V39.5273L25.4297 39.668C25.0312 39.8438 24.832 40.2656 24.914 40.6758L22.9453 37.8281C22.664 37.4297 22.1133 37.3242 21.7148 37.6055C21.3047 37.8867 21.2109 38.4375 21.4922 38.8477L22.8633 40.8047L21.4336 41.4375C20.9765 41.6367 20.7773 42.1641 20.9765 42.6211C21.1992 43.1133 21.7617 43.2773 22.1601 43.0781L23.7187 42.3867C23.7773 42.3633 23.8359 42.3281 23.8945 42.2812L27.914 48.082C28.0781 48.3164 28.3476 48.4688 28.6406 48.4688H38.8945V52.3125H38.8828ZM57.0586 14.1094C57.0586 14.6133 56.8594 15.082 56.5078 15.4453C56.1445 15.8086 55.664 16.0078 55.1601 16.0078L40.8398 16.0195C39 16.0195 37.8281 16.8516 37.2539 17.3438L34.4414 19.7344L34.4297 3.57422C34.4297 2.51953 35.2851 1.66406 36.3398 1.66406L55.1484 1.65234C55.6523 1.65234 56.1328 1.85156 56.4961 2.21484C56.8594 2.57812 57.0586 3.05859 57.0586 3.5625V14.1094ZM50.1328 3.78516H47.8711C47.414 3.78516 47.0508 4.14844 47.0508 4.60547V13.043C47.0508 13.5 47.414 13.8633 47.8711 13.8633C48.3281 13.8633 48.6914 13.5 48.6914 13.043V10.3359H49.6875L51.6679 13.4766C51.8203 13.7227 52.0898 13.8633 52.3594 13.8633C52.5117 13.8633 52.664 13.8281 52.7929 13.7344C53.1797 13.4883 53.2969 12.9844 53.0508 12.5977L51.4336 10.0312C52.4648 9.53906 53.1679 8.49609 53.1679 7.28906V6.82031C53.1679 5.14453 51.8086 3.78516 50.1328 3.78516ZM51.5273 7.28906C51.5273 8.0625 50.8945 8.68359 50.1328 8.68359H48.6914V5.42578H50.1328C50.9062 5.42578 51.5273 6.05859 51.5273 6.82031V7.28906ZM42.7617 4.30078C42.6328 3.97266 42.3164 3.77344 41.9883 3.77344C41.6601 3.77344 41.3437 3.97266 41.2148 4.30078L37.9687 12.6562C37.8047 13.0781 38.0156 13.5586 38.4375 13.7227C38.5312 13.7578 38.6367 13.7812 38.7304 13.7812C39.0586 13.7812 39.375 13.582 39.4922 13.2539L40.3945 10.9336H43.5703L44.4726 13.2539C44.6015 13.582 44.9062 13.7812 45.2344 13.7812C45.3281 13.7812 45.4336 13.7578 45.5273 13.7227C45.9492 13.5586 46.1601 13.0781 45.9961 12.6562L42.7617 4.30078ZM41.039 9.28125L41.9883 6.84375L42.9375 9.28125H41.039Z" fill="#01A1DE"/>
</svg>
