<svg width="60" height="60" viewBox="0 0 60 60" fill="none" xmlns="http://www.w3.org/2000/svg">
<g clip-path="url(#clip0_410_76)">
<path d="M34.0053 27.0934C34.0053 24.8675 32.1999 23.0566 29.9808 23.0566C27.7616 23.0566 25.9562 24.8675 25.9562 27.0934C25.9562 28.9655 27.2332 30.5436 28.9593 30.9983L28.9796 35.2757C28.9823 35.8405 29.441 36.282 30.0052 36.282H30.0102C30.5766 36.282 31.0335 35.8382 31.0309 35.2718L31.0105 30.9959C32.7325 30.5383 34.0053 28.9624 34.0053 27.0934ZM29.9809 29.0791C28.8928 29.0791 28.0076 28.1883 28.0076 27.0934C28.0076 25.9986 28.8927 25.1079 29.9809 25.1079C31.0689 25.1079 31.9541 25.9986 31.9541 27.0934C31.9541 28.1883 31.0689 29.0791 29.9809 29.0791Z" fill="#01A1DE"/>
<path d="M56.1501 25.8981C54.3828 25.8981 52.8909 27.0512 52.4404 28.7178H45.5368C45.9418 26.7948 46.2363 24.8717 46.4653 22.8204H51.4745C52.0409 22.8204 52.4359 22.401 52.4359 21.8346V12.0398C54.1026 11.5919 55.2978 10.1 55.2978 8.33245C55.2978 6.21206 53.5869 4.48706 51.464 4.48706C49.3412 4.48706 47.5901 6.21206 47.5901 8.33245C47.5901 10.096 48.8462 11.5851 50.3846 12.0367V20.7691H46.6773C46.8264 19.2307 46.9453 17.5736 47.0556 15.9401C47.0999 15.2854 46.51 14.7863 45.8746 14.885C44.6567 15.118 43.4251 15.2935 42.1827 15.2935C38.0558 15.2932 34.2637 13.4219 30.6515 9.62975C30.138 9.19219 29.6328 9.20155 29.1363 9.65783C25.3004 14.158 19.9777 16.0287 14.1262 14.8846C13.4885 14.7599 12.8617 15.2853 12.906 15.9404C13.0185 17.5998 13.1368 19.2307 13.2813 20.7691H9.8718V12.0367C11.4103 11.5851 12.6796 10.0962 12.6796 8.33245C12.6796 6.21206 10.9472 4.48706 8.82436 4.48706C6.70154 4.48706 4.98256 6.21206 4.98256 8.33245C4.98256 10.1001 6.15385 11.5919 7.82051 12.0398V21.8345C7.82051 22.4009 8.25795 22.8203 8.82436 22.8203H13.4887C13.7154 24.8715 14.0045 26.7946 14.4033 28.7177H7.55974C7.1091 27.051 5.61731 25.898 3.85 25.898C1.72705 25.8981 0 27.6232 0 29.7436C0 31.8639 1.72705 33.5889 3.84987 33.5889C5.61718 33.5889 7.10897 32.4358 7.55962 30.7691H14.8924C15.4417 32.8249 16.2181 34.7317 17.0831 36.6665H8.82436C8.25795 36.6665 7.82051 37.086 7.82051 37.6524V47.9616C6.15385 48.4112 4.98551 49.9017 4.98551 51.6673C4.98551 53.7877 6.70705 55.5127 8.82987 55.5127C10.9528 55.5127 12.688 53.7877 12.688 51.6673C12.688 49.9017 11.5385 48.4112 9.8718 47.9616V38.7178H18.2572C20.8838 42.8204 24.6388 45.7099 29.6368 47.5737C29.8781 47.646 30.1197 47.6467 30.3615 47.5755C35.3132 45.681 39.0418 42.6922 41.66 38.7178H50.3846V47.9616C48.8462 48.4112 47.5924 49.9017 47.5924 51.6673C47.5924 53.7877 49.3355 55.5127 51.4585 55.5127C53.5814 55.5127 55.2842 53.7877 55.2842 51.6673C55.2842 49.9017 54.1026 48.4112 52.4359 47.9616V37.6526C52.4359 37.0862 52.0409 36.6667 51.4745 36.6667H42.8409C43.7226 34.7376 44.4969 32.8224 45.045 30.7692H52.4403C52.8909 32.4359 54.3827 33.589 56.15 33.589C58.273 33.5889 60 31.8639 60 29.7435C60 27.6231 58.273 25.8981 56.1501 25.8981ZM49.6815 8.33245C49.6815 7.34309 50.4883 6.53834 51.48 6.53834C52.4717 6.53834 53.2786 7.34309 53.2786 8.33245C53.2786 9.32181 52.4717 10.1265 51.48 10.1265C50.4883 10.1265 49.6815 9.32181 49.6815 8.33245ZM7.02026 8.33245C7.02026 7.34309 7.82718 6.53834 8.81885 6.53834C9.81051 6.53834 10.6174 7.34309 10.6174 8.33245C10.6174 9.32181 9.81051 10.1265 8.81885 10.1265C7.82718 10.1265 7.02026 9.32181 7.02026 8.33245ZM3.84987 31.5376C2.85821 31.5376 2.05128 30.7328 2.05128 29.7436C2.05128 28.7542 2.85821 27.9495 3.84987 27.9495C4.84154 27.9495 5.64846 28.7542 5.64846 29.7436C5.64859 30.7328 4.84167 31.5376 3.84987 31.5376ZM10.6229 51.6673C10.6229 52.6567 9.81603 53.4614 8.82436 53.4614C7.83269 53.4614 7.0259 52.6567 7.0259 51.6673C7.0259 50.678 7.83269 49.8732 8.82436 49.8732C9.81603 49.8732 10.6229 50.678 10.6229 51.6673ZM53.2731 51.6673C53.2731 52.6567 52.4662 53.4614 51.4745 53.4614C50.4828 53.4614 49.6759 52.6567 49.6759 51.6673C49.6759 50.678 50.4828 49.8732 51.4745 49.8732C52.4662 49.8732 53.2731 50.678 53.2731 51.6673ZM15.0431 17.1099C20.5771 17.8231 26.2312 16.0991 29.9564 11.8357C33.9881 15.7446 39.2459 18.0482 44.9194 17.1021C43.9605 30.2827 41.9847 40.7144 29.9905 45.4935C17.9891 40.8268 16.0086 30.3578 15.0431 17.1099ZM56.1501 31.5376C55.1585 31.5376 54.3515 30.7328 54.3515 29.7436C54.3515 28.7542 55.1585 27.9495 56.1501 27.9495C57.1418 27.9495 57.9487 28.7542 57.9487 29.7436C57.9487 30.7328 57.1418 31.5376 56.1501 31.5376Z" fill="#01A1DE"/>
</g>
<defs>
<clipPath id="clip0_410_76">
<rect width="60" height="60" fill="white"/>
</clipPath>
</defs>
</svg>
