<svg width="60" height="60" viewBox="0 0 60 60" fill="none" xmlns="http://www.w3.org/2000/svg">
<path d="M58.3081 29.871C59.6952 27.1269 59.1208 23.8697 56.8789 21.7655L53.625 18.7113C52.8744 18.007 52.4156 17.2121 52.1808 16.2097L51.1627 11.8649C50.4616 8.87121 47.9278 6.74508 44.8577 6.57434L40.4021 6.32648C39.3743 6.2693 38.5118 5.95535 37.6877 5.33859L34.1151 2.66437C31.654 0.821953 28.3461 0.821719 25.8846 2.66437L22.312 5.33848C21.4879 5.95535 20.6253 6.2693 19.5976 6.32648L15.142 6.57434C12.072 6.74508 9.53821 8.87121 8.83696 11.8649L7.81895 16.2098C7.58423 17.2121 7.12532 18.007 6.37485 18.7114L3.12079 21.7655C0.878876 23.8696 0.30454 27.1269 1.69157 29.871L3.70485 33.8536C4.16927 34.7723 4.32864 35.6762 4.20642 36.6983L3.67673 41.1294C3.31192 44.1823 4.96567 47.0467 7.792 48.2572L11.8943 50.0141C12.8404 50.4193 13.5436 51.0093 14.1071 51.8707L16.5497 55.6056C18.2324 58.1788 21.3404 59.3101 24.2838 58.4205L28.5555 57.1296C29.5409 56.8317 30.4588 56.8318 31.444 57.1296L35.7157 58.4205C36.3854 58.6229 37.0633 58.7208 37.7313 58.7207C39.9992 58.7205 42.15 57.5933 43.4498 55.6056L45.8925 51.8707C46.4559 51.0093 47.159 50.4192 48.1052 50.014L52.2075 48.2571C55.0338 47.0466 56.6877 44.1821 56.3227 41.1293L55.7931 36.6981C55.6708 35.6761 55.8302 34.7721 56.2946 33.8535L58.3081 29.871ZM54.6215 33.0079C53.9914 34.2544 53.7657 35.5343 53.9315 36.9209L54.4612 41.352C54.7306 43.6061 53.5563 45.64 51.4695 46.5338L47.3673 48.2906C46.0835 48.8405 45.0879 49.6759 44.3234 50.8446L41.8808 54.5795C40.6384 56.4793 38.4311 57.2825 36.2582 56.6258L31.9865 55.3349C31.3181 55.1329 30.6591 55.0318 29.9999 55.0318C29.3408 55.0318 28.6815 55.1329 28.0132 55.3349L23.7415 56.6258C21.5686 57.2824 19.3615 56.4793 18.1189 54.5795L15.6764 50.8446C14.9118 49.6758 13.9161 48.8404 12.6324 48.2906L8.53017 46.5338C6.44329 45.6401 5.26907 43.6061 5.53849 41.352L6.06817 36.9209C6.23399 35.5342 6.00829 34.2543 5.37817 33.0077L3.36489 29.0251C2.34091 26.9991 2.7486 24.6863 4.40388 23.1326L7.65794 20.0786C8.67618 19.1229 9.32599 17.9973 9.6445 16.6375L10.6625 12.2925C11.1802 10.0822 12.9794 8.5725 15.2461 8.44652L19.7017 8.19867C21.0961 8.12109 22.3174 7.67648 23.4355 6.83965L27.0081 4.16543C28.8254 2.80512 31.1742 2.805 32.9915 4.16543L36.5641 6.83965C37.6822 7.67648 38.9036 8.12109 40.2979 8.19867L44.7535 8.44652C47.0203 8.57262 48.8193 10.0822 49.3371 12.2926L50.3551 16.6375C50.6736 17.9974 51.3235 19.123 52.3418 20.0786L55.5957 23.1326C57.251 24.6861 57.6587 26.9991 56.6347 29.0251L54.6215 33.0079ZM30 10.8346C19.432 10.8346 10.8344 19.4321 10.8344 30.0001C10.8344 40.5681 19.432 49.1657 30 49.1657C40.5679 49.1657 49.1655 40.5681 49.1655 30.0001C49.1655 19.4321 40.5679 10.8346 30 10.8346ZM30 47.2907C20.4659 47.2907 12.7094 39.5341 12.7094 30.0001C12.7094 20.4661 20.4659 12.7096 30 12.7096C39.534 12.7096 47.2905 20.4661 47.2905 30.0001C47.2905 39.5341 39.534 47.2907 30 47.2907ZM37.9796 21.313C37.975 21.313 37.9702 21.313 37.9657 21.313C37.0289 21.3166 36.1503 21.6848 35.4921 22.3499L27.7177 30.2016L24.507 26.9907C23.844 26.3277 22.9623 25.9625 22.0243 25.9625C21.0862 25.9625 20.2046 26.3277 19.5415 26.9909C18.1726 28.3598 18.1726 30.5873 19.5415 31.9562L25.2439 37.6587C25.9284 38.343 26.8275 38.6854 27.7267 38.6854C28.6258 38.6854 29.525 38.3432 30.2095 37.6587C32.3715 35.4966 34.5529 33.2838 36.6627 31.1441C37.9303 29.8582 39.1981 28.5724 40.4689 27.2897C41.8285 25.9177 41.8214 23.6944 40.453 22.3336C39.791 21.675 38.9131 21.313 37.9796 21.313ZM39.1371 25.9698C37.8651 27.2537 36.5962 28.5407 35.3273 29.8276C33.22 31.9651 31.0409 34.1754 28.8836 36.3327C28.2457 36.9707 27.2075 36.9707 26.5698 36.3327L20.8674 30.6302C20.2296 29.9924 20.2296 28.9543 20.8674 28.3164C21.1763 28.0075 21.5872 27.8373 22.0243 27.8373C22.4613 27.8373 22.8723 28.0075 23.1812 28.3164L27.0581 32.1934C27.234 32.3692 27.4724 32.468 27.721 32.468H27.7234C27.9729 32.4674 28.2118 32.3673 28.3872 32.1901L36.8245 23.6688C37.1299 23.3603 37.5378 23.1894 37.9729 23.1878H37.9795C38.4142 23.1878 38.8228 23.3563 39.131 23.6627C39.7674 24.296 39.7702 25.3308 39.1371 25.9698Z" fill="#01A1DE"/>
</svg>
