<svg width="1323" height="720" viewBox="0 0 1323 720" fill="none" xmlns="http://www.w3.org/2000/svg">
<g clip-path="url(#clip0_560_735)">
<rect width="1323" height="720" fill="url(#paint0_linear_560_735)"/>
<g filter="url(#filter0_f_560_735)">
<ellipse cx="-10" cy="281" rx="211" ry="203" fill="#DBD5F8"/>
</g>
<g filter="url(#filter1_f_560_735)">
<ellipse cx="232" cy="565.5" rx="248" ry="238.5" fill="#E7E3F9"/>
</g>
<line x1="-1668" y1="164.5" x2="50" y2="164.5" stroke="#98D8F1"/>
<g opacity="0.1">
<path d="M706.004 92.8531H700.894V110.892C700.894 111.729 699.357 113.592 698.575 114.155C694.408 117.152 687.606 114.404 687.606 109.798V80.607H706.004V45.2941C706.004 44.5613 704.98 42.6843 704.514 41.9778C700.016 35.1569 688.241 35.2488 683.981 42.1932C683.71 42.6351 682.75 44.7275 682.75 45.0754V63.9891H687.605V47.0431C687.605 46.7171 688.015 45.3138 688.174 44.9058C689.63 41.1673 695.568 40.1249 698.904 42.7784C699.452 43.2148 700.893 45.1771 700.893 45.7305V76.233H682.75V110.018C682.75 118.945 695.894 123.142 702.943 116.583C703.987 115.61 706.003 112.589 706.003 111.33V92.8542L706.004 92.8531Z" fill="#01A1DE"/>
<path d="M711.115 68.3627V72.7356H732.452C733.1 72.7356 735.392 73.9683 735.902 74.4376C738.993 77.2814 737.831 82.1739 733.599 83.5565C733.149 83.703 731.532 84.1056 731.175 84.1056H692.717V88.1504C692.717 88.1733 693.073 88.4785 693.1 88.4785H731.686C741.212 88.4785 746.362 77.4838 739.614 71.4187C738.426 70.3501 734.628 68.3627 732.965 68.3627H711.116H711.115Z" fill="#01A1DE"/>
<path d="M677.639 84.1064H657.58C652.095 84.1064 649.117 78.3454 652.493 74.7239C653.159 74.0086 655.285 72.7365 656.303 72.7365H695.785V68.3635H655.535C652.114 68.3635 647.685 72.2902 646.597 74.9284C644.12 80.9355 649.279 88.4805 657.069 88.4805H677.257C677.284 88.4805 677.641 88.1753 677.641 88.1523V84.1075L677.639 84.1064Z" fill="#01A1DE"/>
</g>
<path opacity="0.1" d="M615.39 74.1504L616.287 74.1348C616.399 74.1328 616.502 74.1748 616.573 74.2513C616.643 74.3279 616.677 74.4329 616.665 74.5432C616.654 74.6535 616.598 74.76 616.511 74.8394C616.424 74.9187 616.312 74.9644 616.2 74.9663L615.485 74.9788L617.284 79.4462L618.521 77.3975L617.572 75.129L617.57 75.1245C617.527 75.0187 617.514 74.9004 617.532 74.7809C617.55 74.6614 617.598 74.5448 617.673 74.4421C617.746 74.3393 617.843 74.2536 617.954 74.1935C618.066 74.1334 618.188 74.1008 618.308 74.099L620.3 74.0642C620.424 74.0618 620.543 74.0911 620.645 74.1492C620.747 74.2073 620.829 74.2924 620.882 74.3961C620.937 74.4993 620.961 74.6179 620.954 74.7405C620.947 74.8631 620.908 74.9856 620.84 75.0963L619.463 77.3752L619.723 77.9957L621.966 74.2667C621.995 74.2174 622.034 74.1732 622.079 74.1366C622.125 74.1 622.176 74.0718 622.23 74.0535C622.285 74.0353 622.341 74.0273 622.395 74.0302C622.45 74.033 622.503 74.0466 622.549 74.0701C622.596 74.0937 622.637 74.1267 622.669 74.1673C622.701 74.2079 622.723 74.2553 622.735 74.3068C622.747 74.3582 622.748 74.4128 622.738 74.4673C622.729 74.5217 622.708 74.575 622.678 74.6242L620.293 78.5894C620.223 78.7065 620.123 78.8058 620.005 78.8763C619.886 78.9467 619.754 78.9854 619.623 78.9881C619.491 78.9907 619.367 78.9572 619.262 78.8913C619.157 78.8253 619.077 78.7296 619.031 78.6149L618.901 78.3057L617.874 80.0068C617.801 80.1273 617.698 80.2295 617.576 80.3019C617.453 80.3742 617.317 80.4138 617.182 80.4161C617.047 80.4185 616.918 80.3835 616.811 80.3152C616.703 80.2469 616.621 80.1479 616.574 80.0295L614.631 75.2047C614.586 75.0959 614.573 74.9744 614.591 74.8516C614.61 74.7289 614.66 74.609 614.736 74.5035C614.812 74.3977 614.912 74.3095 615.026 74.2477C615.141 74.1858 615.266 74.1523 615.39 74.1504ZM619.083 76.4673L620.03 74.9006L618.439 74.9284L619.083 76.4673Z" fill="white"/>
<g opacity="0.7">
<g opacity="0.1">
<path d="M769.702 133.534H765.555V148.172C765.555 148.851 764.308 150.364 763.673 150.82C760.292 153.252 754.773 151.022 754.773 147.285V123.597H769.702V94.9423C769.702 94.3476 768.871 92.8245 768.493 92.2512C764.842 86.7163 755.288 86.7909 751.831 92.426C751.611 92.7846 750.832 94.4825 750.832 94.7647V110.112H754.772V96.3615C754.772 96.097 755.105 94.9582 755.233 94.6272C756.415 91.5935 761.234 90.7476 763.94 92.9009C764.385 93.255 765.554 94.8473 765.554 95.2964V120.048H750.832V147.463C750.832 154.707 761.498 158.113 767.218 152.79C768.065 152.001 769.701 149.55 769.701 148.528V133.535L769.702 133.534Z" fill="#01A1DE"/>
<path d="M773.849 113.662V117.211H791.163C791.689 117.211 793.549 118.211 793.963 118.592C796.471 120.899 795.528 124.869 792.094 125.991C791.729 126.11 790.417 126.437 790.127 126.437H758.92V129.719C758.92 129.738 759.209 129.985 759.231 129.985H790.542C798.272 129.985 802.451 121.064 796.975 116.142C796.011 115.275 792.929 113.662 791.579 113.662H773.85H773.849Z" fill="#01A1DE"/>
<path d="M746.685 126.438H730.408C725.957 126.438 723.54 121.763 726.28 118.824C726.82 118.244 728.545 117.212 729.372 117.212H761.409V113.663H728.748C725.973 113.663 722.378 116.85 721.496 118.99C719.485 123.865 723.672 129.987 729.993 129.987H746.375C746.397 129.987 746.686 129.74 746.686 129.721V126.439L746.685 126.438Z" fill="#01A1DE"/>
</g>
<path opacity="0.1" d="M696.172 124.595L696.9 124.582C696.991 124.581 697.074 124.615 697.132 124.677C697.189 124.739 697.216 124.824 697.207 124.914C697.198 125.003 697.152 125.09 697.082 125.154C697.011 125.219 696.92 125.256 696.829 125.257L696.249 125.267L697.709 128.892L698.713 127.23L697.943 125.389L697.941 125.386C697.906 125.3 697.896 125.204 697.91 125.107C697.925 125.01 697.964 124.915 698.025 124.832C698.084 124.748 698.163 124.679 698.253 124.63C698.343 124.581 698.442 124.555 698.54 124.553L700.156 124.525C700.257 124.523 700.354 124.547 700.436 124.594C700.519 124.641 700.585 124.71 700.629 124.794C700.673 124.878 700.693 124.974 700.687 125.074C700.681 125.173 700.649 125.273 700.595 125.363L699.478 127.212L699.688 127.715L701.508 124.69C701.532 124.65 701.563 124.614 701.6 124.584C701.637 124.554 701.679 124.531 701.723 124.517C701.767 124.502 701.812 124.495 701.857 124.498C701.901 124.5 701.944 124.511 701.982 124.53C702.02 124.549 702.053 124.576 702.079 124.609C702.104 124.642 702.123 124.68 702.132 124.722C702.142 124.764 702.143 124.808 702.135 124.852C702.127 124.896 702.11 124.94 702.086 124.98L700.151 128.197C700.094 128.292 700.013 128.373 699.917 128.43C699.821 128.487 699.713 128.519 699.607 128.521C699.5 128.523 699.399 128.496 699.314 128.442C699.229 128.389 699.164 128.311 699.127 128.218L699.022 127.967L698.188 129.347C698.129 129.445 698.045 129.528 697.946 129.587C697.847 129.646 697.736 129.678 697.626 129.68C697.517 129.681 697.412 129.653 697.325 129.598C697.238 129.542 697.171 129.462 697.133 129.366L695.556 125.451C695.52 125.362 695.509 125.264 695.524 125.164C695.539 125.065 695.58 124.967 695.642 124.882C695.703 124.796 695.784 124.724 695.877 124.674C695.97 124.624 696.072 124.597 696.172 124.595ZM699.169 126.475L699.937 125.204L698.647 125.226L699.169 126.475Z" fill="white"/>
</g>
<g opacity="0.1">
<path d="M687.355 632.434H682.836V614.135C682.836 613.286 681.478 611.395 680.786 610.825C677.101 607.785 671.087 610.572 671.087 615.245V644.857H687.355V680.68C687.355 681.423 686.45 683.327 686.037 684.044C682.06 690.963 671.648 690.87 667.881 683.825C667.641 683.377 666.792 681.255 666.792 680.902V661.715H671.085V678.906C671.085 679.236 671.448 680.66 671.588 681.074C672.876 684.866 678.127 685.924 681.076 683.232C681.561 682.789 682.835 680.799 682.835 680.237V649.294H666.792V615.022C666.792 605.965 678.416 601.708 684.648 608.362C685.572 609.348 687.354 612.413 687.354 613.69V632.433L687.355 632.434Z" fill="#01A1DE"/>
<path d="M691.875 657.277V652.841H710.742C711.315 652.841 713.342 651.591 713.793 651.115C716.526 648.23 715.498 643.267 711.756 641.864C711.358 641.716 709.928 641.307 709.613 641.307H675.606V637.204C675.606 637.181 675.921 636.871 675.945 636.871H710.065C718.488 636.871 723.042 648.025 717.075 654.177C716.024 655.261 712.666 657.277 711.195 657.277H691.876H691.875Z" fill="#01A1DE"/>
<path d="M662.273 641.306H644.536C639.686 641.306 637.052 647.151 640.037 650.824C640.626 651.55 642.506 652.84 643.407 652.84H678.318V657.277H642.728C639.703 657.277 635.786 653.293 634.824 650.617C632.634 644.523 637.196 636.869 644.084 636.869H661.935C661.959 636.869 662.275 637.179 662.275 637.202V641.305L662.273 641.306Z" fill="#01A1DE"/>
</g>
<path opacity="0.1" d="M607.229 646.465L608.023 646.478C608.121 646.48 608.212 646.443 608.275 646.375C608.338 646.308 608.367 646.215 608.357 646.117C608.346 646.02 608.297 645.926 608.22 645.855C608.143 645.785 608.044 645.745 607.945 645.743L607.313 645.732L608.904 641.782L609.998 643.593L609.159 645.599L609.157 645.603C609.119 645.697 609.107 645.801 609.123 645.907C609.139 646.013 609.182 646.116 609.248 646.207C609.312 646.298 609.398 646.373 609.497 646.427C609.595 646.48 609.703 646.508 609.81 646.51L611.57 646.541C611.68 646.543 611.786 646.517 611.876 646.466C611.966 646.414 612.038 646.339 612.085 646.247C612.134 646.156 612.156 646.051 612.149 645.943C612.143 645.834 612.108 645.726 612.048 645.628L610.831 643.613L611.061 643.064L613.044 646.362C613.07 646.405 613.104 646.444 613.144 646.477C613.184 646.509 613.23 646.534 613.278 646.55C613.326 646.566 613.375 646.573 613.424 646.571C613.472 646.568 613.518 646.556 613.56 646.536C613.601 646.515 613.637 646.486 613.665 646.45C613.694 646.414 613.714 646.372 613.724 646.326C613.735 646.281 613.736 646.233 613.727 646.184C613.718 646.136 613.7 646.089 613.674 646.046L611.565 642.539C611.503 642.436 611.415 642.348 611.31 642.286C611.205 642.223 611.088 642.189 610.972 642.187C610.856 642.185 610.745 642.214 610.653 642.272C610.56 642.331 610.49 642.415 610.449 642.517L610.334 642.79L609.425 641.286C609.361 641.179 609.27 641.089 609.162 641.025C609.054 640.961 608.933 640.926 608.814 640.924C608.694 640.922 608.58 640.953 608.485 641.013C608.39 641.074 608.318 641.161 608.276 641.266L606.558 645.532C606.519 645.629 606.507 645.736 606.523 645.845C606.539 645.953 606.583 646.059 606.651 646.152C606.718 646.246 606.806 646.324 606.907 646.379C607.009 646.433 607.12 646.463 607.229 646.465ZM610.495 644.416L611.332 645.801L609.926 645.777L610.495 644.416Z" fill="white"/>
<g opacity="0.7">
<g opacity="0.1">
<path d="M743.681 591.166H740.014V576.317C740.014 575.628 738.911 574.094 738.35 573.631C735.36 571.164 730.479 573.426 730.479 577.217V601.246H743.681V630.315C743.681 630.918 742.946 632.464 742.611 633.045C739.383 638.66 730.935 638.584 727.878 632.868C727.683 632.504 726.995 630.782 726.995 630.495V614.926H730.478V628.876C730.478 629.144 730.773 630.299 730.886 630.635C731.931 633.712 736.192 634.57 738.585 632.386C738.979 632.027 740.013 630.412 740.013 629.956V604.847H726.995V577.036C726.995 569.687 736.426 566.233 741.484 571.632C742.233 572.433 743.68 574.919 743.68 575.956V591.165L743.681 591.166Z" fill="#01A1DE"/>
<path d="M747.348 611.325V607.726H762.658C763.123 607.726 764.767 606.711 765.133 606.325C767.351 603.984 766.518 599.956 763.481 598.818C763.158 598.698 761.997 598.366 761.742 598.366H734.146V595.037C734.146 595.018 734.402 594.767 734.421 594.767H762.108C768.944 594.767 772.639 603.817 767.797 608.81C766.944 609.689 764.219 611.325 763.026 611.325H747.349H747.348Z" fill="#01A1DE"/>
<path d="M723.327 598.365H708.935C704.999 598.365 702.862 603.108 705.284 606.089C705.762 606.678 707.287 607.725 708.018 607.725H736.347V611.324H707.467C705.012 611.324 701.834 608.092 701.054 605.92C699.276 600.975 702.978 594.765 708.568 594.765H723.053C723.073 594.765 723.328 595.016 723.328 595.035V598.364L723.327 598.365Z" fill="#01A1DE"/>
</g>
<path opacity="0.1" d="M678.661 601.859L679.305 601.87C679.385 601.872 679.459 601.842 679.51 601.787C679.561 601.732 679.585 601.656 679.576 601.577C679.568 601.498 679.528 601.422 679.466 601.365C679.403 601.308 679.323 601.275 679.242 601.274L678.73 601.265L680.02 598.059L680.908 599.529L680.227 601.157L680.226 601.16C680.195 601.236 680.185 601.321 680.198 601.407C680.211 601.492 680.246 601.576 680.299 601.65C680.352 601.723 680.421 601.785 680.501 601.828C680.581 601.871 680.669 601.895 680.755 601.896L682.184 601.921C682.273 601.923 682.359 601.902 682.432 601.86C682.505 601.818 682.564 601.757 682.602 601.683C682.641 601.609 682.659 601.524 682.654 601.436C682.648 601.348 682.62 601.26 682.572 601.18L681.584 599.545L681.77 599.1L683.379 601.776C683.401 601.811 683.429 601.843 683.461 601.869C683.494 601.895 683.531 601.915 683.569 601.929C683.608 601.942 683.649 601.947 683.688 601.945C683.727 601.943 683.765 601.933 683.798 601.917C683.832 601.9 683.861 601.876 683.884 601.847C683.907 601.818 683.923 601.784 683.932 601.747C683.94 601.71 683.941 601.671 683.934 601.632C683.927 601.593 683.912 601.554 683.891 601.519L682.18 598.674C682.129 598.59 682.058 598.519 681.973 598.468C681.888 598.417 681.793 598.39 681.698 598.388C681.604 598.386 681.515 598.41 681.44 598.457C681.365 598.505 681.307 598.573 681.274 598.656L681.181 598.877L680.443 597.657C680.391 597.57 680.317 597.497 680.23 597.445C680.142 597.393 680.044 597.365 679.947 597.363C679.85 597.361 679.758 597.386 679.681 597.436C679.604 597.485 679.545 597.556 679.511 597.641L678.116 601.102C678.085 601.181 678.075 601.268 678.088 601.356C678.102 601.444 678.137 601.53 678.192 601.606C678.246 601.682 678.318 601.745 678.4 601.789C678.482 601.834 678.572 601.858 678.661 601.859ZM681.311 600.197L681.99 601.321L680.849 601.301L681.311 600.197Z" fill="white"/>
</g>
<path d="M839.039 224.182L839.12 222.384L837.603 223.359L837.138 222.55L838.749 221.727L837.138 220.905L837.603 220.095L839.12 221.071L839.039 219.273H839.963L839.882 221.071L841.4 220.095L841.864 220.905L840.253 221.727L841.864 222.55L841.4 223.359L839.882 222.384L839.963 224.182H839.039Z" fill="#FF0707"/>
</g>
<defs>
<filter id="filter0_f_560_735" x="-521" y="-222" width="1022" height="1006" filterUnits="userSpaceOnUse" color-interpolation-filters="sRGB">
<feFlood flood-opacity="0" result="BackgroundImageFix"/>
<feBlend mode="normal" in="SourceGraphic" in2="BackgroundImageFix" result="shape"/>
<feGaussianBlur stdDeviation="150" result="effect1_foregroundBlur_560_735"/>
</filter>
<filter id="filter1_f_560_735" x="-316" y="27" width="1096" height="1077" filterUnits="userSpaceOnUse" color-interpolation-filters="sRGB">
<feFlood flood-opacity="0" result="BackgroundImageFix"/>
<feBlend mode="normal" in="SourceGraphic" in2="BackgroundImageFix" result="shape"/>
<feGaussianBlur stdDeviation="150" result="effect1_foregroundBlur_560_735"/>
</filter>
<linearGradient id="paint0_linear_560_735" x1="661.5" y1="-271.8" x2="661.5" y2="720" gradientUnits="userSpaceOnUse">
<stop stop-color="#D1EEF8"/>
<stop offset="1" stop-color="white"/>
</linearGradient>
<clipPath id="clip0_560_735">
<rect width="1323" height="720" fill="white"/>
</clipPath>
</defs>
</svg>
