<svg width="223" height="173" viewBox="0 0 223 173" fill="none" xmlns="http://www.w3.org/2000/svg">
<g opacity="0.1">
<path d="M110.623 81.6801H104.479V108.024C104.479 109.246 102.631 111.968 101.691 112.789C96.6801 117.165 88.5018 113.153 88.5018 106.426V63.7961H110.623V12.2253C110.623 11.1551 109.392 8.41405 108.831 7.38215C103.423 -2.57898 89.2657 -2.44481 84.1429 7.69682C83.8171 8.34216 82.6628 11.3979 82.6628 11.9059V39.5274H88.5003V14.7795C88.5003 14.3035 88.9936 12.2541 89.1842 11.6583C90.9348 6.19851 98.0756 4.67622 102.086 8.55142C102.745 9.18877 104.477 12.0544 104.477 12.8627V57.4082H82.6628V106.747C82.6628 119.785 98.4676 125.914 106.942 116.335C108.198 114.915 110.622 110.503 110.622 108.664V81.6817L110.623 81.6801Z" fill="#01A1DE"/>
<path d="M116.768 45.9145V52.3007H142.423C143.203 52.3007 145.959 54.1009 146.572 54.7862C150.288 58.9393 148.891 66.0843 143.802 68.1034C143.261 68.3174 141.317 68.9053 140.888 68.9053H94.6466V74.8123C94.6466 74.8458 95.0754 75.2915 95.1077 75.2915H141.503C152.956 75.2915 159.149 59.2348 151.035 50.3775C149.606 48.8169 145.039 45.9145 143.04 45.9145H116.77H116.768Z" fill="#01A1DE"/>
<path d="M76.518 68.9066H52.3998C45.8046 68.9066 42.2235 60.4933 46.2826 55.2044C47.0834 54.1598 49.6394 52.302 50.8644 52.302H98.3354V45.9158H49.9406C45.8277 45.9158 40.5021 51.6503 39.1941 55.5032C36.2155 64.2759 42.4187 75.2944 51.785 75.2944H76.0585C76.0907 75.2944 76.5196 74.8488 76.5196 74.8152V68.9082L76.518 68.9066Z" fill="#01A1DE"/>
</g>
<path opacity="0.1" d="M1.67158 32.8043L2.75021 32.786C2.88464 32.7837 3.00803 32.8328 3.09323 32.9224C3.17843 33.012 3.21847 33.1347 3.20454 33.2637C3.1906 33.3927 3.12383 33.5173 3.01892 33.6101C2.91401 33.7029 2.77955 33.7563 2.64512 33.7586L1.78566 33.7732L3.94833 38.9983L5.43648 36.6021L4.29499 33.9489L4.29271 33.9436C4.24077 33.8199 4.22482 33.6815 4.24641 33.5418C4.26799 33.402 4.32638 33.2656 4.41599 33.1455C4.50413 33.0252 4.62079 32.925 4.75468 32.8547C4.88857 32.7844 5.03514 32.7463 5.18022 32.7442L7.57448 32.7035C7.72392 32.7007 7.86691 32.7349 7.98959 32.8029C8.11226 32.8709 8.21046 32.9703 8.27467 33.0916C8.3403 33.2124 8.37014 33.3511 8.36134 33.4945C8.35254 33.6378 8.3054 33.7811 8.22442 33.9107L6.56916 36.5761L6.88134 37.3018L9.57752 32.9404C9.61319 32.8827 9.65968 32.831 9.71432 32.7882C9.76895 32.7454 9.83065 32.7124 9.89589 32.691C9.96112 32.6696 10.0286 32.6603 10.0945 32.6637C10.1603 32.667 10.2232 32.6829 10.2796 32.7104C10.336 32.7379 10.3848 32.7765 10.4231 32.824C10.4614 32.8715 10.4885 32.927 10.5028 32.9872C10.5172 33.0474 10.5185 33.1112 10.5067 33.1749C10.4949 33.2386 10.4703 33.301 10.4341 33.3584L7.56705 37.9962C7.48266 38.1331 7.36245 38.2493 7.21996 38.3317C7.07747 38.4141 6.91838 38.4594 6.76058 38.4625C6.60279 38.4656 6.45258 38.4264 6.32686 38.3493C6.20114 38.2722 6.10492 38.1602 6.04903 38.026L5.89321 37.6644L4.65745 39.654C4.57027 39.795 4.4462 39.9146 4.29924 39.9991C4.15228 40.0837 3.98828 40.13 3.82576 40.1328C3.66324 40.1356 3.50866 40.0947 3.37947 40.0148C3.25029 39.9349 3.15164 39.8191 3.09466 39.6806L0.758385 34.0374C0.705178 33.9102 0.688902 33.768 0.71111 33.6245C0.733319 33.4809 0.79327 33.3407 0.885252 33.2173C0.97593 33.0935 1.09596 32.9904 1.23373 32.9181C1.37149 32.8457 1.52231 32.8066 1.67158 32.8043ZM6.11198 35.5142L7.25001 33.6818L5.33788 33.7143L6.11198 35.5142Z" fill="white"/>
<g opacity="0.7">
<g opacity="0.1">
<path d="M187.212 141.089H182.226V162.466C182.226 163.458 180.727 165.667 179.963 166.333C175.897 169.884 169.261 166.628 169.261 161.17V126.577H187.212V84.7297C187.212 83.8613 186.213 81.637 185.758 80.7996C181.369 72.7166 169.881 72.8255 165.724 81.055C165.46 81.5787 164.523 84.0583 164.523 84.4705V106.884H169.26V86.8023C169.26 86.416 169.66 84.753 169.815 84.2696C171.235 79.8392 177.03 78.6039 180.284 81.7485C180.819 82.2656 182.224 84.591 182.224 85.2469V121.394H164.523V161.431C164.523 172.01 177.348 176.984 184.225 169.21C185.244 168.058 187.211 164.478 187.211 162.986V141.091L187.212 141.089Z" fill="#01A1DE"/>
<path d="M192.198 112.067V117.25H213.016C213.649 117.25 215.885 118.71 216.383 119.267C219.398 122.637 218.265 128.435 214.135 130.073C213.696 130.247 212.118 130.724 211.77 130.724H174.247V135.517C174.247 135.544 174.595 135.906 174.622 135.906H212.269C221.563 135.906 226.588 122.876 220.004 115.689C218.845 114.423 215.139 112.067 213.517 112.067H192.2H192.198Z" fill="#01A1DE"/>
<path d="M159.537 130.725H139.966C134.614 130.725 131.708 123.898 135.002 119.606C135.652 118.759 137.726 117.251 138.72 117.251H177.241V112.069H137.97C134.633 112.069 130.311 116.722 129.25 119.849C126.833 126.968 131.867 135.909 139.467 135.909H159.164C159.19 135.909 159.538 135.547 159.538 135.52V130.727L159.537 130.725Z" fill="#01A1DE"/>
</g>
<path opacity="0.1" d="M98.8019 91.8057L99.6771 91.7909C99.7862 91.789 99.8863 91.8288 99.9555 91.9015C100.025 91.9742 100.057 92.0738 100.046 92.1785C100.034 92.2831 99.9803 92.3842 99.8952 92.4596C99.81 92.5349 99.7009 92.5782 99.5918 92.5801L98.8944 92.5919L100.649 96.8319L101.857 94.8875L100.931 92.7344L100.929 92.7302C100.887 92.6298 100.874 92.5175 100.891 92.4041C100.909 92.2907 100.956 92.18 101.029 92.0825C101.1 91.9849 101.195 91.9037 101.304 91.8466C101.412 91.7896 101.531 91.7587 101.649 91.7569L103.592 91.7239C103.713 91.7216 103.829 91.7494 103.929 91.8045C104.028 91.8597 104.108 91.9404 104.16 92.0388C104.213 92.1368 104.237 92.2494 104.23 92.3657C104.223 92.4821 104.185 92.5983 104.119 92.7035L102.776 94.8664L103.029 95.4553L105.217 91.9161C105.246 91.8693 105.284 91.8273 105.328 91.7926C105.373 91.7579 105.423 91.7311 105.476 91.7137C105.528 91.6964 105.583 91.6889 105.637 91.6916C105.69 91.6943 105.741 91.7072 105.787 91.7295C105.833 91.7518 105.872 91.7832 105.903 91.8217C105.934 91.8602 105.956 91.9052 105.968 91.9541C105.98 92.003 105.981 92.0547 105.971 92.1064C105.962 92.1581 105.942 92.2087 105.912 92.2553L103.586 96.0187C103.517 96.1298 103.42 96.2241 103.304 96.291C103.189 96.3578 103.059 96.3946 102.931 96.3971C102.803 96.3996 102.681 96.3678 102.579 96.3052C102.477 96.2426 102.399 96.1518 102.354 96.0429L102.228 95.7495L101.225 97.364C101.154 97.4784 101.053 97.5754 100.934 97.644C100.815 97.7127 100.682 97.7502 100.55 97.7525C100.418 97.7547 100.293 97.7215 100.188 97.6567C100.083 97.5918 100.003 97.4979 99.9566 97.3855L98.0608 92.8063C98.0177 92.7031 98.0045 92.5877 98.0225 92.4712C98.0405 92.3547 98.0891 92.241 98.1638 92.1408C98.2374 92.0404 98.3348 91.9567 98.4466 91.898C98.5583 91.8393 98.6807 91.8075 98.8019 91.8057ZM102.405 94.0047L103.329 92.5177L101.777 92.5441L102.405 94.0047Z" fill="white"/>
</g>
</svg>
