<svg width="60" height="60" viewBox="0 0 60 60" fill="none" xmlns="http://www.w3.org/2000/svg">
<path d="M42.9727 53.0039V54.4922C42.9727 56.1562 41.6133 57.5156 39.9492 57.5156H6.50391C4.83984 57.5156 3.48047 56.1562 3.48047 54.4922V5.92969C3.48047 4.26562 4.83984 2.90625 6.50391 2.90625H39.9492C41.6133 2.90625 42.9727 4.26562 42.9727 5.92969V24.3398C46.0898 24.375 49.1836 24.5859 52.2656 24.9727C52.6289 25.0195 52.9102 25.2656 53.0273 25.582C53.2617 26.25 53.6133 27 53.9766 27.6094C54.6914 28.8516 55.6289 29.9766 56.6953 30.8906C56.9414 31.1016 57.0469 31.418 57.0117 31.7109C55.9453 40.6758 50.6953 48.5273 42.9727 53.0039ZM37.7227 36.8555C37.3828 36.4688 37.4297 35.8711 37.8281 35.5313C38.2266 35.1914 38.8125 35.2383 39.1523 35.6367L40.9102 37.6758L44.6484 33.3984C44.9883 33.0117 45.5742 32.9648 45.9727 33.3047C46.3594 33.6445 46.4062 34.2305 46.0664 34.6289L41.5195 39.8086C41.1328 40.1484 40.5352 40.1016 40.1953 39.7031L37.7227 36.8555ZM42.0352 28.3242C46.6875 28.3242 50.4727 32.0977 50.4727 36.7617C50.4727 41.4258 46.6875 45.1992 42.0352 45.1992C37.3711 45.1992 33.5977 41.4258 33.5977 36.7617C33.5977 32.0977 37.3828 28.3242 42.0352 28.3242ZM46.6758 32.1211C44.1094 29.5547 39.9609 29.5547 37.3945 32.1211C34.8281 34.6875 34.8281 38.8359 37.3945 41.4023C39.9609 43.9688 44.1094 43.9688 46.6758 41.4023C49.2422 38.8477 49.2422 34.6875 46.6758 32.1211ZM8.34375 20.0625C7.82812 20.0625 7.40625 19.6406 7.40625 19.125C7.40625 18.6094 7.82812 18.1875 8.34375 18.1875H38.0977C38.6133 18.1875 39.0352 18.6094 39.0352 19.125C39.0352 19.6406 38.6133 20.0625 38.0977 20.0625H8.34375ZM11.9883 13.8516C11.9883 13.3359 12.4102 12.9141 12.9258 12.9141C13.4414 12.9141 13.8633 13.3359 13.8633 13.8516V14.168C13.8633 15.4453 12.832 16.4766 11.5547 16.4766H10.3945C9.11719 16.4766 8.08594 15.4453 8.08594 14.168V9.44531C8.08594 8.17969 9.11719 7.14844 10.3945 7.14844H11.5547C12.832 7.14844 13.8633 8.17969 13.8633 9.45703V9.77344C13.8633 10.2891 13.4414 10.7109 12.9258 10.7109C12.4102 10.7109 11.9883 10.2891 11.9883 9.77344C11.9883 9.51563 12.0234 9.31641 11.8594 9.15234C11.7773 9.07031 11.6719 9.02344 11.5547 9.02344H10.3945C10.1602 9.02344 9.96094 9.22266 9.96094 9.45703V14.1797C9.96094 14.4141 10.1602 14.6133 10.3945 14.6133H11.5547C11.7891 14.6133 11.9883 14.4141 11.9883 14.1797V13.8516ZM29.4023 15.5391C29.4023 16.0547 28.9805 16.4766 28.4648 16.4766C27.9492 16.4766 27.5273 16.0547 27.5273 15.5391V8.08594C27.5273 7.57031 27.9492 7.14844 28.4648 7.14844C28.9805 7.14844 29.4023 7.57031 29.4023 8.08594V15.5391ZM32.7656 15.5391C32.7656 16.0547 32.3438 16.4766 31.8281 16.4766C31.3125 16.4766 30.8906 16.0547 30.8906 15.5391V8.08594C30.8906 7.11328 32.25 6.73828 32.6953 7.73438L34.6172 11.4961L36.5859 7.65234C37.0312 6.78516 38.3555 7.10156 38.3555 8.07422V15.5273C38.3555 16.043 37.9336 16.4648 37.418 16.4648C36.9023 16.4648 36.4805 16.043 36.4805 15.5273V11.9531L35.4492 13.9687C35.1094 14.6367 34.1367 14.6484 33.7852 13.9687L32.7539 11.9531V15.5391H32.7656ZM22.125 15.5391C22.125 16.0547 21.7031 16.4766 21.1875 16.4766C20.6719 16.4766 20.25 16.0547 20.25 15.5391V9.64453C20.25 8.26172 21.375 7.13672 22.7578 7.13672H23.5312C24.9141 7.13672 26.0391 8.26172 26.0391 9.64453V15.5391C26.0391 16.0547 25.6172 16.4766 25.1016 16.4766C24.5859 16.4766 24.1641 16.0547 24.1641 15.5391V14.4609H22.1367V15.5391H22.125ZM22.125 9.64453V12.5742H24.1523V9.64453C24.1523 9.30469 23.8711 9.01172 23.5195 9.01172H22.7461C22.4063 9.02344 22.125 9.30469 22.125 9.64453ZM18.4922 14.6016C19.0078 14.6016 19.4297 15.0234 19.4297 15.5391C19.4297 16.0547 19.0078 16.4766 18.4922 16.4766H15.8203C15.3047 16.4766 14.8828 16.0547 14.8828 15.5391V8.08594C14.8828 7.57031 15.3047 7.14844 15.8203 7.14844C16.3359 7.14844 16.7578 7.57031 16.7578 8.08594V14.6016H18.4922ZM8.34375 25.875C7.82812 25.875 7.40625 25.4531 7.40625 24.9375C7.40625 24.4219 7.82812 24 8.34375 24H27.1406C27.6563 24 28.0781 24.4219 28.0781 24.9375C28.0781 25.4531 27.6563 25.875 27.1406 25.875H8.34375ZM8.34375 34.0195C7.82812 34.0195 7.40625 33.5977 7.40625 33.082C7.40625 32.5664 7.82812 32.1445 8.34375 32.1445H20.4492C20.9648 32.1445 21.3867 32.5664 21.3867 33.082C21.3867 33.5977 20.9648 34.0195 20.4492 34.0195H8.34375ZM8.34375 29.9531C7.82812 29.9531 7.40625 29.5312 7.40625 29.0156C7.40625 28.5 7.82812 28.0781 8.34375 28.0781H22.957C23.4727 28.0781 23.8945 28.5 23.8945 29.0156C23.8945 29.5312 23.4727 29.9531 22.957 29.9531H8.34375ZM14.7773 38.6016C12.4805 38.6016 11.3203 41.3906 12.9492 43.0195C14.5781 44.6484 17.3672 43.4883 17.3672 41.1914C17.3672 39.7617 16.207 38.6016 14.7773 38.6016ZM11.625 38.0391C13.3711 36.293 16.1953 36.293 17.9414 38.0391C19.4648 39.5625 19.6875 41.9648 18.457 43.7344C20.1797 44.7188 21.1875 46.7344 21.1875 48.7852V50.8711C21.1875 51.3867 20.7656 51.8086 20.25 51.8086H9.32812C8.8125 51.8086 8.39062 51.3867 8.39062 50.8711V48.7852C8.39062 46.7227 9.38672 44.707 11.1211 43.7344C9.87891 41.9648 10.1016 39.5625 11.625 38.0391ZM16.9219 45.1055C14.6719 46.3359 12.6914 45.1055 12.6445 45.1055C12.0352 45.2695 11.4961 45.668 11.0742 46.2188C10.5703 46.8984 10.2656 47.7891 10.2656 48.7852V49.9336H19.3125V48.7852C19.3008 47.1797 18.4219 45.5039 16.9219 45.1055ZM41.0977 24.3516V5.92969C41.0977 5.29688 40.582 4.78125 39.9492 4.78125H6.50391C5.87109 4.78125 5.35547 5.29688 5.35547 5.92969V54.4922C5.35547 55.125 5.88281 55.6406 6.50391 55.6406H39.9492C40.582 55.6406 41.0977 55.125 41.0977 54.4922V53.0039C33.3867 48.5391 28.125 40.6758 27.0586 31.7227C27.0234 31.3828 27.1641 31.0664 27.4219 30.8672C27.9375 30.4219 28.418 29.918 28.875 29.3789C29.8008 28.2656 30.5508 26.9648 31.043 25.5937C31.1719 25.2305 31.5 25.0078 31.8516 24.9844C33.5156 24.7734 35.1914 24.6211 36.8789 24.5039C38.2852 24.4102 39.6914 24.3633 41.0977 24.3516ZM33.2578 43.1836C35.5195 46.5469 38.5312 49.3594 42.0352 51.3867C49.0898 47.2852 53.9648 40.1484 55.0898 31.9805C54.0117 30.9844 53.0977 29.8477 52.3477 28.5586C52.0312 28.0195 51.7031 27.3398 51.4688 26.7656C45.2812 26.0273 38.7656 26.0273 32.5781 26.7656C31.7812 28.7344 30.5273 30.5391 28.9688 31.9805C29.543 36.082 31.043 39.8906 33.2578 43.1836Z" fill="#01A1DE"/>
</svg>
