<svg width="81" height="81" viewBox="0 0 81 81" fill="none" xmlns="http://www.w3.org/2000/svg">
<rect width="81" height="81" rx="10" fill="#01A1DE"/>
<path d="M58.7765 29.2118C58.4941 29.2118 58.2118 29.4236 58.2118 29.7765C58.2118 30.1294 58.4235 30.3412 58.7765 30.3412C59.6235 30.3412 60.4 31.0471 60.4 31.9647V49.6824H55.1059V19.1177C55.1059 18.8353 54.8941 18.553 54.5412 18.553H26.5177C26.2353 18.553 25.9529 18.7647 25.9529 19.1177V49.5412H19.6V31.8236C19.6 30.9765 20.3059 30.2 21.2235 30.2C21.5059 30.2 21.7882 29.9883 21.7882 29.6353C21.7882 29.2824 21.5765 29.0706 21.2235 29.0706C19.7412 29.0706 18.5412 30.2706 18.5412 31.753V53.1412C18.5412 54.6236 19.7412 55.8236 21.2235 55.8236H35.2C34.8471 57.4471 33.9294 58.5765 32.4471 59.4236H30.8235C29.6941 59.4236 28.8471 60.3412 28.8471 61.4C28.8471 62.4589 29.7647 63.3765 30.8235 63.3765H48.9647C50.0941 63.3765 50.9412 62.4589 50.9412 61.4C50.9412 60.3412 50.0235 59.4236 48.9647 59.4236C45.2235 59.4236 38.0235 59.4236 34.2824 59.4236C35.3412 58.5059 35.9765 57.3059 36.2588 55.8236H43.3882C43.5294 56.5294 43.7412 57.0942 44.0235 57.6589C44.1647 57.9412 44.4471 58.0118 44.7294 57.8706C45.0118 57.7295 45.0824 57.4471 44.9412 57.1647C44.7294 56.7412 44.5882 56.3177 44.4471 55.8236H58.7765C60.2588 55.8236 61.4588 54.6236 61.4588 53.1412C61.4588 47.6353 61.4588 37.2589 61.4588 31.753C61.4588 30.3412 60.2588 29.2118 58.7765 29.2118ZM48.9647 60.4824C49.4588 60.4824 49.8824 60.9059 49.8824 61.4C49.8824 61.8942 49.4588 62.3177 48.9647 62.3177H30.8235C30.3294 62.3177 29.9059 61.8942 29.9059 61.4C29.9059 60.9059 30.3294 60.4824 30.8235 60.4824H48.9647ZM27.0824 19.6118H54.0471V49.5412H27.0824V19.6118ZM60.4 53.2118C60.4 54.0589 59.6941 54.8353 58.7765 54.8353H43.8118H35.7647H21.2235C20.3765 54.8353 19.6 54.1294 19.6 53.2118V50.6H60.4V53.2118Z" fill="white"/>
<path d="M33.7883 22.5059C34.2118 22.5059 34.6353 22.5765 35.1294 22.8588C35.2706 22.9294 35.4824 22.9294 35.553 22.7882C35.6941 22.647 35.6941 22.2941 35.4824 22.1529C34.8471 21.8 34.353 21.6588 33.7177 21.6588C32.1647 21.6588 31.0353 22.7176 31.0353 24.4118C31.0353 26.1059 32.1647 27.1647 33.7177 27.1647C34.353 27.1647 34.8471 27.0235 35.4824 26.6706C35.7647 26.5294 35.7647 26.247 35.553 26.0353C35.4118 25.8941 35.2 25.8941 35.1294 25.9647C34.6353 26.247 34.2824 26.3176 33.7883 26.3176C32.5883 26.3176 31.8824 25.5412 31.8824 24.4118C31.8824 23.3529 32.5883 22.5059 33.7883 22.5059Z" fill="white"/>
<path d="M37.1765 26.7412V21.9412C37.1765 21.6589 36.9647 21.5177 36.7529 21.5177C36.5412 21.5177 36.3294 21.7295 36.3294 21.9412V26.7412C36.3294 26.953 36.5412 27.1648 36.7529 27.1648C37.0353 27.1648 37.1765 27.0236 37.1765 26.7412Z" fill="white"/>
<path d="M37.9529 26.0354C37.9529 26.7412 38.5176 27.2354 39.2235 27.2354C39.7176 27.2354 40.1412 27.0942 40.5647 26.8118C40.5647 27.0236 40.7765 27.2354 40.9882 27.2354C41.2 27.2354 41.4118 27.0942 41.4118 26.8118V24.6942C41.4118 23.8471 40.7765 23.1412 39.7882 23.1412C39.3647 23.1412 38.8706 23.2118 38.4471 23.4236C38.1647 23.5648 38.1647 23.9177 38.3059 24.0589C38.4471 24.2001 38.5176 24.2001 38.6588 24.1295C39.0824 23.9883 39.2941 23.9883 39.6471 23.9883C40.2824 23.9883 40.5647 24.2706 40.5647 24.7648H39.7882C38.8 24.6942 37.9529 25.0471 37.9529 26.0354ZM40.5647 25.9648C40.2824 26.2471 39.9294 26.4589 39.5059 26.4589C39.0824 26.4589 38.8 26.3177 38.8 25.9648C38.8 25.6118 39.1529 25.4706 39.8588 25.4706H40.5647V25.9648Z" fill="white"/>
<path d="M42.8235 22.5765C43.1059 22.5765 43.3176 22.3647 43.3176 22.0824C43.3176 21.8 43.1059 21.5883 42.8235 21.5883C42.5412 21.5883 42.3294 21.8 42.3294 22.0824C42.3294 22.3647 42.5412 22.5765 42.8235 22.5765Z" fill="white"/>
<path d="M42.4 23.5648V26.7412C42.4 26.953 42.6118 27.1648 42.8236 27.1648C43.0353 27.1648 43.2471 26.953 43.2471 26.7412V23.5648C43.2471 23.2824 43.0353 23.1412 42.8236 23.1412C42.5412 23.1412 42.4 23.353 42.4 23.5648Z" fill="white"/>
<path d="M45.0823 26.7412V24.553C45.4353 23.9883 45.7176 23.9177 46.0706 23.9177C46.4941 23.9177 46.7059 24.0589 46.7059 24.7648V26.7412C46.7059 27.0236 46.9176 27.1648 47.1294 27.1648C47.3412 27.1648 47.5529 27.0236 47.5529 26.7412V24.553C47.9059 23.9883 48.1882 23.9177 48.5412 23.9177C48.9647 23.9177 49.1765 24.0589 49.1765 24.7648V26.7412C49.1765 26.953 49.3882 27.1648 49.6 27.1648C49.8118 27.1648 50.0235 26.953 50.0235 26.7412V24.6236C50.0235 23.7765 49.5294 23.1412 48.6823 23.1412C48.1176 23.1412 47.6235 23.353 47.3412 23.8471C47.1294 23.4942 46.7059 23.1412 46.2118 23.1412C45.7176 23.1412 45.3647 23.2824 45.0118 23.6354V23.5648C45.0118 23.353 44.8 23.1412 44.5882 23.1412C44.4471 23.1412 44.2353 23.353 44.2353 23.5648V26.7412C44.2353 26.953 44.4471 27.1648 44.6588 27.1648C44.8706 27.1648 45.0823 27.0236 45.0823 26.7412Z" fill="white"/>
<path d="M34.6353 28.7177H30.2588C29.9765 28.7177 29.6941 28.9294 29.6941 29.2824V33.6588C29.6941 33.9412 29.9059 34.2235 30.2588 34.2235H34.6353C34.9177 34.2235 35.2 34.0118 35.2 33.6588V29.2824C35.1294 28.9294 34.9177 28.7177 34.6353 28.7177ZM34.0706 33.0941H30.7529V29.7765H34.0706V33.0941Z" fill="white"/>
<path d="M34.6353 35.7765H30.2588C29.9765 35.7765 29.6941 35.9883 29.6941 36.3412V40.7177C29.6941 41 29.9059 41.2824 30.2588 41.2824H34.6353C34.9177 41.2824 35.2 41.0706 35.2 40.7177V36.3412C35.1294 36.0588 34.9177 35.7765 34.6353 35.7765ZM34.0706 40.2235H30.7529V36.9059H34.0706V40.2235Z" fill="white"/>
<path d="M34.6353 42.9059H30.2588C29.9765 42.9059 29.6941 43.1176 29.6941 43.4706V47.8471C29.6941 48.1294 29.9059 48.4118 30.2588 48.4118H34.6353C34.9177 48.4118 35.2 48.2 35.2 47.8471V43.4706C35.1294 43.1176 34.9177 42.9059 34.6353 42.9059ZM34.0706 47.2824H30.7529V43.9647H34.0706V47.2824Z" fill="white"/>
<path d="M50.9412 30.9059H37.6C37.3177 30.9059 37.0353 31.1176 37.0353 31.4706C37.0353 31.8235 37.2471 32.0353 37.6 32.0353H50.8706C51.153 32.0353 51.4353 31.8235 51.4353 31.4706C51.4353 31.1176 51.2235 30.9059 50.9412 30.9059Z" fill="white"/>
<path d="M50.9412 38.0353H37.6C37.3177 38.0353 37.0353 38.247 37.0353 38.6C37.0353 38.9529 37.2471 39.1647 37.6 39.1647H50.8706C51.153 39.1647 51.4353 38.9529 51.4353 38.6C51.4353 38.247 51.2235 38.0353 50.9412 38.0353Z" fill="white"/>
<path d="M50.9412 45.0941H37.6C37.3177 45.0941 37.0353 45.3059 37.0353 45.6588C37.0353 46.0118 37.2471 46.2235 37.6 46.2235H50.8706C51.153 46.2235 51.4353 46.0118 51.4353 45.6588C51.4353 45.3059 51.2235 45.0941 50.9412 45.0941Z" fill="white"/>
</svg>
