<svg width="81" height="81" viewBox="0 0 81 81" fill="none" xmlns="http://www.w3.org/2000/svg">
<rect width="81" height="81" rx="10" fill="#01A1DE"/>
<path fill-rule="evenodd" clip-rule="evenodd" d="M48.6692 44.3977C48.7482 44.3967 48.8265 44.4114 48.8998 44.4409C48.973 44.4705 49.0396 44.5142 49.0958 44.5697C49.152 44.6252 49.1966 44.6913 49.2271 44.7642C49.2575 44.837 49.2732 44.9152 49.2732 44.9942C49.2732 45.0731 49.2575 45.1513 49.2271 45.2242C49.1966 45.297 49.152 45.3631 49.0958 45.4186C49.0396 45.4741 48.973 45.5179 48.8998 45.5474C48.8265 45.577 48.7482 45.5917 48.6692 45.5907L35.6966 45.5813C35.5384 45.5813 35.3867 45.5184 35.2748 45.4066C35.1629 45.2947 35.1001 45.143 35.1001 44.9848C35.1001 44.8265 35.1629 44.6748 35.2748 44.5629C35.3867 44.4511 35.5384 44.3882 35.6966 44.3882L48.6692 44.3981V44.3977ZM35.6966 42.2007C35.6177 42.2016 35.5393 42.187 35.4661 42.1574C35.3928 42.1279 35.3262 42.0841 35.27 42.0286C35.2138 41.9731 35.1692 41.907 35.1387 41.8342C35.1083 41.7613 35.0926 41.6831 35.0926 41.6042C35.0926 41.5252 35.1083 41.447 35.1387 41.3742C35.1692 41.3013 35.2138 41.2352 35.27 41.1797C35.3262 41.1242 35.3928 41.0805 35.4661 41.0509C35.5393 41.0214 35.6177 41.0067 35.6966 41.0077L48.6692 41.0171C48.8274 41.0171 48.9791 41.0799 49.091 41.1918C49.2029 41.3037 49.2657 41.4554 49.2657 41.6136C49.2657 41.7718 49.2029 41.9235 49.091 42.0354C48.9791 42.1473 48.8274 42.2101 48.6692 42.2101L35.6966 42.2008V42.2007ZM33.6939 40.9169C34.3178 40.5982 34.8881 41.4499 34.3483 41.9043L33.6939 42.4554V45.7471C33.6939 45.906 33.6308 46.0583 33.5185 46.1706C33.4062 46.2829 33.2539 46.346 33.0951 46.346H28.1893C28.0305 46.346 27.8782 46.2829 27.7658 46.1706C27.6535 46.0583 27.5904 45.906 27.5904 45.7471V40.8414C27.5904 40.6825 27.6535 40.5302 27.7658 40.4179C27.8782 40.3056 28.0305 40.2425 28.1893 40.2425H33.0951C33.2539 40.2425 33.4062 40.3056 33.5185 40.4179C33.6308 40.5302 33.6939 40.6825 33.6939 40.8414V40.9169ZM29.1269 43.3438C29.0652 43.2951 29.0138 43.2347 28.9756 43.1661C28.9373 43.0975 28.913 43.022 28.904 42.9439C28.8951 42.8659 28.9017 42.7868 28.9234 42.7113C28.9451 42.6359 28.9815 42.5654 29.0305 42.504C29.0795 42.4426 29.1402 42.3916 29.2091 42.3537C29.2779 42.3159 29.3536 42.2921 29.4317 42.2836C29.5098 42.2751 29.5888 42.2821 29.6641 42.3043C29.7395 42.3265 29.8097 42.3633 29.8708 42.4127L30.9083 43.2428L32.4962 41.9054V41.4406H28.7882V45.1487H32.4962V43.4642L31.3019 44.4701C31.1964 44.5587 31.0635 44.6081 30.9258 44.6098C30.788 44.6115 30.6539 44.5654 30.5463 44.4794L29.1269 43.3438ZM23.0161 29.1928H20.7843C20.5461 29.1928 20.3176 29.2875 20.1491 29.4559C19.9807 29.6244 19.8861 29.8528 19.8861 30.0911C19.8861 30.3293 19.9807 30.5578 20.1491 30.7262C20.3176 30.8947 20.5461 30.9893 20.7843 30.9893H23.0161C23.2543 30.9893 23.4828 30.8947 23.6512 30.7262C23.8197 30.5578 23.9143 30.3293 23.9143 30.0911C23.9143 29.8528 23.8197 29.6244 23.6512 29.4559C23.4828 29.2875 23.2543 29.1928 23.0161 29.1928ZM23.0161 37.641H20.7843C20.5461 37.641 20.3176 37.7357 20.1491 37.9041C19.9807 38.0726 19.8861 38.301 19.8861 38.5393C19.8861 38.7775 19.9807 39.0059 20.1491 39.1744C20.3176 39.3428 20.5461 39.4375 20.7843 39.4375H23.0161C23.2543 39.4375 23.4828 39.3428 23.6512 39.1744C23.8197 39.0059 23.9143 38.7775 23.9143 38.5393C23.9143 38.301 23.8197 38.0726 23.6512 37.9041C23.4828 37.7357 23.2543 37.641 23.0161 37.641ZM23.0161 46.0892H20.7843C20.5461 46.0892 20.3176 46.1839 20.1491 46.3523C19.9807 46.5208 19.8861 46.7492 19.8861 46.9874C19.8861 47.2257 19.9807 47.4541 20.1491 47.6226C20.3176 47.791 20.5461 47.8857 20.7843 47.8857H23.0161C23.2543 47.8857 23.4828 47.791 23.6512 47.6226C23.8197 47.4541 23.9143 47.2257 23.9143 46.9874C23.9143 46.7492 23.8197 46.5208 23.6512 46.3523C23.4828 46.1839 23.2543 46.0892 23.0161 46.0892ZM23.0161 54.5374H20.7843C20.5461 54.5374 20.3176 54.632 20.1491 54.8005C19.9807 54.9689 19.8861 55.1974 19.8861 55.4356C19.8861 55.6739 19.9807 55.9023 20.1491 56.0708C20.3176 56.2392 20.5461 56.3338 20.7843 56.3338H23.0161C23.2543 56.3338 23.4828 56.2392 23.6512 56.0708C23.8197 55.9023 23.9143 55.6739 23.9143 55.4356C23.9143 55.1974 23.8197 54.9689 23.6512 54.8005C23.4828 54.632 23.2543 54.5374 23.0161 54.5374ZM33.6942 31.6828C34.3181 31.364 34.8884 32.2157 34.3486 32.67L33.6942 33.2212V36.5129C33.6942 36.6718 33.6311 36.8241 33.5188 36.9364C33.4065 37.0487 33.2542 37.1118 33.0953 37.1118H28.1893C28.0305 37.1118 27.8782 37.0487 27.7658 36.9364C27.6535 36.8241 27.5904 36.6718 27.5904 36.5129V31.6072C27.5904 31.4484 27.6535 31.296 27.7658 31.1837C27.8782 31.0714 28.0305 31.0083 28.1893 31.0083H33.0951C33.2539 31.0083 33.4062 31.0714 33.5185 31.1837C33.6308 31.296 33.6939 31.4484 33.6939 31.6072V31.6828H33.6942ZM29.1269 34.1094C29.0652 34.0607 29.0138 34.0003 28.9756 33.9317C28.9373 33.8631 28.913 33.7876 28.904 33.7096C28.8951 33.6315 28.9017 33.5525 28.9234 33.477C28.9451 33.4015 28.9815 33.331 29.0305 33.2696C29.0795 33.2083 29.1402 33.1572 29.2091 33.1194C29.2779 33.0815 29.3536 33.0577 29.4317 33.0492C29.5098 33.0407 29.5888 33.0478 29.6641 33.0699C29.7395 33.0921 29.8097 33.1289 29.8708 33.1783L30.9083 34.0084L32.4962 32.6711V32.2063H28.7882V35.9141H32.4962V34.23L31.3019 35.2359C31.1964 35.3245 31.0635 35.3739 30.9258 35.3756C30.788 35.3773 30.6539 35.3312 30.5463 35.2453L29.1269 34.1094ZM46.2925 53.466L45.9011 56.5361L48.8422 55.5695C48.0906 54.7569 47.2328 54.0494 46.2922 53.466H46.2925ZM55.7562 41.4183C56.9181 42.1191 57.9682 42.9903 58.8713 44.0028L59.5532 43.1767C59.8191 42.8678 59.9771 42.4806 60.0032 42.0738C60.0139 41.7681 59.9233 41.4981 59.7289 41.3376L58.1768 40.0579C57.9833 39.9159 57.714 39.8845 57.4312 39.9494C57.0369 40.0513 56.6866 40.279 56.4334 40.5979L55.7562 41.4183ZM54.4873 42.9558L54.985 42.3528C56.1603 43.0344 57.2134 43.9076 58.1009 44.9363L57.6083 45.5331C56.7028 44.5227 55.6507 43.6539 54.4873 42.9558ZM55.8357 45.4386L48.85 53.902C49.2061 54.2214 49.5439 54.5606 49.8619 54.918L56.8382 46.4656C56.5252 46.1031 56.1905 45.7599 55.8357 45.4381V45.4386ZM53.1709 44.5507C53.1513 44.5789 53.1293 44.6055 53.1053 44.63L46.7408 52.3407C47.1517 52.5855 47.5486 52.8531 47.9297 53.1422L54.9152 44.6791C54.5319 44.3917 54.1311 44.1283 53.7152 43.8905L53.1703 44.5507H53.1709ZM33.6939 50.1512C34.3178 49.8325 34.8881 50.6841 34.3483 51.1385L33.6939 51.6897V54.9814C33.6939 55.1402 33.6308 55.2925 33.5185 55.4049C33.4062 55.5172 33.2539 55.5803 33.0951 55.5803H28.1893C28.0305 55.5803 27.8782 55.5172 27.7659 55.4049C27.6536 55.2925 27.5905 55.1402 27.5904 54.9814V50.0756C27.5904 49.9167 27.6535 49.7644 27.7658 49.6521C27.8782 49.5398 28.0305 49.4767 28.1893 49.4767H33.0951C33.2539 49.4767 33.4062 49.5398 33.5185 49.6521C33.6308 49.7644 33.6939 49.9167 33.6939 50.0756V50.1512ZM29.1269 52.5781C29.0652 52.5295 29.0138 52.4691 28.9756 52.4005C28.9373 52.3319 28.913 52.2564 28.904 52.1783C28.8951 52.1003 28.9017 52.0212 28.9234 51.9457C28.9451 51.8702 28.9815 51.7998 29.0305 51.7384C29.0795 51.677 29.1402 51.626 29.2091 51.5881C29.2779 51.5503 29.3536 51.5265 29.4317 51.518C29.5098 51.5095 29.5888 51.5165 29.6641 51.5387C29.7395 51.5608 29.8097 51.5977 29.8708 51.6471L30.9083 52.4772L32.4962 51.1398V50.6744H28.7882V54.3825H32.4962V52.6984L31.3019 53.7043C31.1964 53.7929 31.0635 53.8423 30.9258 53.844C30.788 53.8457 30.6539 53.7997 30.5463 53.7137L29.1269 52.5781ZM59.6447 22.1683C58.465 20.9886 56.962 20.1852 55.3257 19.8597C53.6894 19.5343 51.9934 19.7013 50.4521 20.3398C48.9107 20.9782 47.5933 22.0594 46.6664 23.4465C45.7396 24.8337 45.2449 26.4646 45.2449 28.1329C45.2449 29.8012 45.7396 31.4321 46.6664 32.8193C47.5933 34.2064 48.9107 35.2876 50.4521 35.9261C51.9934 36.5645 53.6894 36.7316 55.3257 36.4061C56.962 36.0806 58.465 35.2772 59.6447 34.0976C61.2266 32.5156 62.1152 30.3701 62.1152 28.1329C62.1152 25.8957 61.2266 23.7502 59.6447 22.1683ZM52.0791 37.6333C50.8685 37.4308 49.7082 36.9973 48.6614 36.3565L35.6967 36.3471C35.6184 36.3471 35.5408 36.3317 35.4684 36.3017C35.3961 36.2717 35.3303 36.2278 35.2749 36.1724C35.2195 36.117 35.1756 36.0512 35.1456 35.9788C35.1156 35.9065 35.1002 35.8289 35.1002 35.7506C35.1002 35.6722 35.1156 35.5947 35.1456 35.5223C35.1756 35.4499 35.2195 35.3841 35.2749 35.3288C35.3303 35.2734 35.3961 35.2294 35.4684 35.1994C35.5408 35.1695 35.6184 35.154 35.6967 35.154L47.0937 35.1623C46.4094 34.5212 45.822 33.784 45.35 32.9738L35.6963 32.9665C35.6173 32.9675 35.5389 32.9528 35.4657 32.9232C35.3924 32.8937 35.3258 32.8499 35.2696 32.7944C35.2134 32.7389 35.1688 32.6729 35.1384 32.6C35.1079 32.5271 35.0922 32.449 35.0922 32.37C35.0922 32.291 35.1079 32.2128 35.1384 32.14C35.1688 32.0671 35.2134 32.001 35.2696 31.9455C35.3258 31.8901 35.3924 31.8463 35.4657 31.8167C35.5389 31.7872 35.6173 31.7725 35.6963 31.7735L44.7614 31.7803C44.199 30.4023 43.963 28.913 44.0719 27.4287C44.1809 25.9444 44.6319 24.5054 45.3895 23.2244H22.4991V27.9951H23.0161C24.8639 27.9951 25.8222 30.2465 24.4973 31.5718C24.3032 31.767 24.0723 31.9218 23.8181 32.0274C23.5639 32.1331 23.2914 32.1875 23.0161 32.1875H22.4991V36.4438H23.0161C24.8639 36.4438 25.8222 38.6952 24.4973 40.0205C24.3031 40.2155 24.0723 40.3703 23.8181 40.4758C23.5639 40.5814 23.2913 40.6357 23.0161 40.6357H22.4991V44.8919H23.0161C24.8638 44.8919 25.8222 47.1433 24.4973 48.4687C24.3031 48.6637 24.0723 48.8185 23.8181 48.924C23.5639 49.0296 23.2913 49.0839 23.0161 49.0839H22.4991V53.3401H23.0161C24.8639 53.3401 25.8222 55.5915 24.4973 56.9169C24.3031 57.1119 24.0723 57.2666 23.8181 57.3722C23.5639 57.4778 23.2913 57.5321 23.0161 57.5321H22.4991V62.3027H52.079V54.1063L50.3352 56.2192C50.2612 56.321 50.1569 56.3967 50.0371 56.4355L45.3742 57.9678V57.9668C45.2786 57.9971 45.177 58.003 45.0786 57.9839C44.9801 57.9648 44.8881 57.9213 44.8109 57.8574C44.7336 57.7934 44.6737 57.7112 44.6364 57.6181C44.5992 57.525 44.586 57.424 44.5979 57.3245L44.9167 54.822L35.6967 54.8151C35.5385 54.8151 35.3868 54.7522 35.2749 54.6404C35.163 54.5285 35.1002 54.3768 35.1002 54.2186C35.1002 54.0604 35.163 53.9086 35.2749 53.7968C35.3868 53.6849 35.5385 53.622 35.6967 53.622L45.0687 53.6292L45.2168 52.4672C45.2327 52.3286 45.2944 52.1993 45.3923 52.0999L45.9346 51.4429L35.6971 51.4349C35.5389 51.4349 35.3872 51.3721 35.2753 51.2602C35.1634 51.1483 35.1006 50.9966 35.1006 50.8384C35.1006 50.6802 35.1634 50.5285 35.2753 50.4166C35.3872 50.3047 35.5389 50.2419 35.6971 50.2419L46.919 50.2506L52.0793 43.9989V37.6333H52.0791ZM53.68 18.5C52.2544 18.4986 50.8462 18.8143 49.5576 19.4242C48.269 20.0342 47.1322 20.9231 46.2296 22.0267H21.9002C21.7414 22.0267 21.589 22.0898 21.4767 22.2021C21.3644 22.3144 21.3013 22.4667 21.3013 22.6256V27.9951H20.7843C20.5091 27.9951 20.2367 28.0495 19.9825 28.155C19.7284 28.2606 19.4977 28.4153 19.3035 28.6103C17.9782 29.9356 18.9365 32.1875 20.7843 32.1875H21.3013V36.4438H20.7843C20.5091 36.4438 20.2367 36.4981 19.9825 36.6037C19.7284 36.7092 19.4977 36.864 19.3035 37.0589C17.9782 38.3843 18.9365 40.6357 20.7843 40.6357H21.3013V44.8919H20.7843C20.5091 44.8919 20.2367 44.9463 19.9825 45.0519C19.7284 45.1574 19.4977 45.3121 19.3035 45.5071C17.9782 46.8324 18.9365 49.0839 20.7843 49.0839H21.3013V53.3401H20.7843C20.5091 53.3401 20.2367 53.3945 19.9825 53.5001C19.7284 53.6056 19.4977 53.7603 19.3035 53.9553C17.9782 55.2807 18.9365 57.5321 20.7843 57.5321H21.3013V62.9016C21.3014 63.0603 21.3646 63.2126 21.4769 63.3248C21.5892 63.437 21.7414 63.5 21.9002 63.5H52.6783C52.8371 63.5 52.9895 63.4369 53.1018 63.3246C53.2141 63.2123 53.2772 63.06 53.2772 62.9011L53.2764 52.656L60.4421 43.9748C60.8932 43.4543 61.1586 42.7988 61.1967 42.1112C61.22 41.4456 60.9854 40.8268 60.4872 40.4159L58.9642 39.1588C57.9235 38.3001 56.38 38.7887 55.5118 39.8405L53.2767 42.5478V37.7572C54.5579 37.8114 55.837 37.6093 57.0391 37.1627C58.2412 36.7161 59.342 36.034 60.2769 35.1564C61.2119 34.2788 61.9622 33.2233 62.4839 32.0519C63.0056 30.8805 63.2882 29.6167 63.315 28.3346C63.3419 27.0526 63.1125 25.778 62.6403 24.5858C62.1681 23.3936 61.4626 22.3076 60.5652 21.3916C59.6678 20.4756 58.5965 19.748 57.4142 19.2515C56.2319 18.7549 54.9624 18.4994 53.68 18.5ZM53.0812 22.7174C53.0812 22.5586 53.1443 22.4063 53.2566 22.294C53.3689 22.1817 53.5212 22.1186 53.68 22.1186C53.8389 22.1186 53.9912 22.1817 54.1035 22.294C54.2158 22.4063 54.2789 22.5586 54.2789 22.7174V27.8382L57.2759 30.1224C57.3383 30.17 57.3906 30.2294 57.43 30.2973C57.4694 30.3651 57.4951 30.4401 57.5055 30.5179C57.5159 30.5956 57.511 30.6747 57.4908 30.7505C57.4707 30.8264 57.4358 30.8975 57.3882 30.9598C57.3406 31.0222 57.2812 31.0746 57.2133 31.114C57.1455 31.1534 57.0705 31.179 56.9927 31.1894C56.915 31.1999 56.8359 31.1949 56.7601 31.1748C56.6842 31.1546 56.6131 31.1198 56.5508 31.0722L53.3504 28.6329C53.2676 28.5784 53.1997 28.5042 53.1527 28.4169C53.1057 28.3296 53.0811 28.232 53.0812 28.1329V22.7174Z" fill="white"/>
</svg>
