<svg width="305" height="219" viewBox="0 0 305 219" fill="none" xmlns="http://www.w3.org/2000/svg">
<g opacity="0.8">
<g opacity="0.1">
<path d="M123.525 91.072H113.01V49.831C113.01 47.918 109.848 43.6568 108.239 42.3715C99.664 35.5196 85.6685 41.8013 85.6685 52.3316V119.07H123.525V199.804C123.525 201.479 121.419 205.77 120.459 207.386C111.203 222.98 86.9757 222.77 78.2092 206.893C77.6516 205.883 75.6763 201.099 75.6763 200.304V157.062H85.6659V195.805C85.6659 196.55 86.5102 199.759 86.8363 200.691C89.8322 209.239 102.052 211.622 108.914 205.555C110.043 204.557 113.007 200.071 113.007 198.806V129.07H75.6763V51.829C75.6763 31.4185 102.723 21.8235 117.226 36.82C119.375 39.0431 123.523 45.9499 123.523 48.8282V91.0695L123.525 91.072Z" fill="#FDFEFF"/>
<path d="M134.041 147.062V137.064H177.945C179.278 137.064 183.994 134.246 185.044 133.173C191.404 126.672 189.013 115.486 180.304 112.325C179.378 111.99 176.051 111.07 175.317 111.07H96.1842V101.822C96.1842 101.77 96.918 101.072 96.9733 101.072H176.369C195.97 101.072 206.567 126.209 192.682 140.075C190.236 142.518 182.422 147.062 179 147.062H134.044H134.041Z" fill="#FDFEFF"/>
<path d="M65.1606 111.068H23.887C12.6007 111.068 6.47229 124.239 13.4187 132.518C14.7891 134.154 19.1631 137.062 21.2594 137.062H102.497V147.06H19.6787C12.6402 147.06 3.52643 138.082 1.2881 132.051C-3.80928 118.317 6.80633 101.067 22.835 101.067H64.3742C64.4294 101.067 65.1632 101.765 65.1632 101.818V111.065L65.1606 111.068Z" fill="#FDFEFF"/>
</g>
<g opacity="0.1">
<path d="M256.074 39.9072H249.258V13.173C249.258 11.9329 247.208 9.1707 246.165 8.33749C240.606 3.89584 231.534 7.96789 231.534 14.7941V58.0563H256.074V110.392C256.074 111.478 254.708 114.259 254.086 115.307C248.086 125.415 232.381 125.279 226.698 114.987C226.337 114.332 225.056 111.231 225.056 110.716V82.6848H231.532V107.799C231.532 108.283 232.079 110.362 232.291 110.967C234.233 116.508 242.154 118.053 246.603 114.12C247.334 113.473 249.256 110.565 249.256 109.745V64.5389H225.056V14.4683C225.056 1.23734 242.589 -4.98258 251.991 4.73878C253.384 6.17988 256.072 10.6572 256.072 12.523V39.9056L256.074 39.9072Z" fill="#FDFEFF"/>
<path d="M262.891 76.2021V69.7212H291.351C292.216 69.7212 295.273 67.8943 295.953 67.1989C300.076 62.9842 298.526 55.7333 292.881 53.6843C292.28 53.4671 290.124 52.8706 289.648 52.8706H238.35V46.876C238.35 46.8419 238.826 46.3896 238.862 46.3896H290.33C303.036 46.3896 309.905 62.6843 300.904 71.673C299.319 73.2567 294.253 76.2021 292.035 76.2021H262.893H262.891Z" fill="#FDFEFF"/>
<path d="M218.24 52.8693H191.484C184.168 52.8693 180.195 61.4073 184.698 66.7745C185.587 67.8347 188.422 69.7199 189.781 69.7199H242.442V76.2008H188.756C184.194 76.2008 178.286 70.3813 176.835 66.4714C173.531 57.5686 180.412 46.3867 190.802 46.3867H217.73C217.766 46.3867 218.241 46.839 218.241 46.873V52.8676L218.24 52.8693Z" fill="#FDFEFF"/>
</g>
</g>
</svg>
