<svg width="81" height="81" viewBox="0 0 81 81" fill="none" xmlns="http://www.w3.org/2000/svg">
<rect width="81" height="81" rx="10" fill="#01A1DE"/>
<g clip-path="url(#clip0_354_123)">
<path d="M18.9 49.8H23.7C25.0232 49.8 26.1 48.7232 26.1 47.4V37C26.1 35.6768 25.0232 34.6 23.7 34.6H18.9C17.5768 34.6 16.5 35.6768 16.5 37V47.4C16.5 48.7232 17.5768 49.8 18.9 49.8ZM18.1 37C18.1 36.5592 18.4592 36.2 18.9 36.2H23.7C24.1408 36.2 24.5 36.5592 24.5 37V47.4C24.5 47.8416 24.1408 48.2 23.7 48.2H18.9C18.4592 48.2 18.1 47.8416 18.1 47.4V37Z" fill="white"/>
<path d="M62.1 19.4H57.3C55.9768 19.4 54.9 20.4768 54.9 21.8V47.4C54.9 48.7232 55.9768 49.8 57.3 49.8H62.1C63.4232 49.8 64.5 48.7232 64.5 47.4V21.8C64.5 20.4768 63.4232 19.4 62.1 19.4ZM62.9 47.4C62.9 47.8416 62.5416 48.2 62.1 48.2H57.3C56.8584 48.2 56.5 47.8416 56.5 47.4V21.8C56.5 21.3592 56.8584 21 57.3 21H62.1C62.5416 21 62.9 21.3592 62.9 21.8V47.4Z" fill="white"/>
<path d="M38.1 55.4C40.1008 55.4 41.964 54.8224 43.552 53.8392L44.796 55.0832C44.6536 55.6176 44.7848 56.2096 45.2032 56.628L50.2376 61.6624C50.8424 62.2672 51.6456 62.6 52.5 62.6C53.3544 62.6 54.1584 62.2672 54.7624 61.6624C55.3672 61.0584 55.7 60.2552 55.7 59.4C55.7 58.5448 55.3672 57.7424 54.7624 57.1376L49.728 52.1032C49.3104 51.6856 48.7176 51.5544 48.184 51.6968L46.9392 50.452C47.0712 50.2384 47.2 50.0232 47.3168 49.8H49.3C50.6232 49.8 51.7 48.7232 51.7 47.4V29C51.7 27.6768 50.6232 26.6 49.3 26.6H44.5C43.1768 26.6 42.1 27.6768 42.1 29V35.4024C40.868 34.8872 39.5168 34.6 38.1 34.6C32.3656 34.6 27.7 39.2656 27.7 45C27.7 50.7344 32.3656 55.4 38.1 55.4ZM53.6312 58.2688C53.9336 58.5712 54.1 58.9728 54.1 59.4C54.1 59.8272 53.9336 60.2288 53.6312 60.5312C53.0264 61.136 51.9736 61.136 51.3688 60.5312L46.3344 55.4968L48.5968 53.2344L53.6312 58.2688ZM46.8968 52.672L45.772 53.7968L44.8616 52.8864C45.2648 52.54 45.6408 52.1648 45.9864 51.7616L46.8968 52.672ZM43.7 29C43.7 28.5592 44.0584 28.2 44.5 28.2H49.3C49.7416 28.2 50.1 28.5592 50.1 29V47.4C50.1 47.8416 49.7416 48.2 49.3 48.2H47.9912C48.3184 47.1912 48.5 46.1168 48.5 45C48.5 41.328 46.5816 38.1016 43.7 36.2504V29ZM38.1 36.2C42.952 36.2 46.9 40.148 46.9 45C46.9 49.852 42.952 53.8 38.1 53.8C33.248 53.8 29.3 49.852 29.3 45C29.3 40.148 33.248 36.2 38.1 36.2Z" fill="white"/>
<path d="M34.9 43.4C35.3416 43.4 35.7 43.0424 35.7 42.6C35.7 41.2768 36.7768 40.2 38.1 40.2C39.4232 40.2 40.5 41.2768 40.5 42.6C40.5 43.9232 39.4232 45 38.1 45C37.6584 45 37.3 45.3576 37.3 45.8V47.4C37.3 47.8424 37.6584 48.2 38.1 48.2C38.5416 48.2 38.9 47.8424 38.9 47.4V46.5192C40.7232 46.1472 42.1 44.532 42.1 42.6C42.1 40.3944 40.3056 38.6 38.1 38.6C35.8944 38.6 34.1 40.3944 34.1 42.6C34.1 43.0424 34.4584 43.4 34.9 43.4Z" fill="white"/>
<path d="M38.1 49.7896C37.6584 49.7896 37.3 50.1576 37.3 50.6C37.3 51.0424 37.6584 51.4 38.1 51.4C38.5416 51.4 38.9 51.0424 38.9 50.6V50.5799C38.9 50.1375 38.5416 49.7896 38.1 49.7896Z" fill="white"/>
</g>
<defs>
<clipPath id="clip0_354_123">
<rect width="48" height="48" fill="white" transform="translate(16.5 17)"/>
</clipPath>
</defs>
</svg>
