<svg width="60" height="60" viewBox="0 0 60 60" fill="none" xmlns="http://www.w3.org/2000/svg">
<path d="M52.5 32.7188V30.8438C53.0175 30.8438 53.4375 30.4241 53.4375 29.9063V24.2813C53.4375 23.7634 53.0175 23.3438 52.5 23.3438H47.4375L47.2559 22.6395C46.8413 21.0289 46.1975 19.4861 45.3431 18.059L44.9681 17.4316L48.5625 13.8311C48.9243 13.4685 48.9243 12.8811 48.5625 12.5186L44.5811 8.53125C44.2134 8.18079 43.6359 8.18079 43.2682 8.53125L39.6672 12.1322L39.0403 11.7572C37.611 10.9025 36.0667 10.2587 34.4539 9.84375L33.75 9.66065V4.59375C33.75 4.07593 33.3303 3.65625 32.8125 3.65625H27.1875C26.6697 3.65625 26.25 4.07593 26.25 4.59375V9.65625L25.5458 9.83826C23.9352 10.2524 22.3923 10.8962 20.9645 11.7495L20.3372 12.1249L16.7373 8.53125C16.3693 8.17786 15.7881 8.17786 15.42 8.53125L11.4375 12.5127C11.2625 12.6874 11.1639 12.9247 11.1639 13.1719C11.1639 13.4194 11.2625 13.6564 11.4375 13.8311L15.0385 17.4316L14.6635 18.059C13.8095 19.4861 13.1653 21.0289 12.7511 22.6395L12.5673 23.3438H7.5C6.98218 23.3438 6.5625 23.7634 6.5625 24.2813V29.9063C6.5625 30.4241 6.98218 30.8438 7.5 30.8438V32.7188C5.9469 32.7188 4.6875 31.4594 4.6875 29.9063V24.2813C4.6875 22.7282 5.9469 21.4688 7.5 21.4688H11.1273C11.514 20.1724 12.037 18.9207 12.6874 17.7349L10.1093 15.1567C9.58191 14.6305 9.28565 13.9164 9.28565 13.1719C9.28565 12.4274 9.58191 11.7133 10.1093 11.1874L14.0936 7.203C15.2036 6.14063 16.9537 6.14063 18.0637 7.203L20.6411 9.78003C21.8269 9.13001 23.079 8.60816 24.375 8.2218V4.59375C24.375 3.04065 25.6344 1.78125 27.1875 1.78125H32.8125C34.3656 1.78125 35.625 3.04065 35.625 4.59375V8.2218C36.9214 8.60816 38.1727 9.1311 39.3589 9.78113L41.937 7.203C43.0474 6.14063 44.7971 6.14063 45.9075 7.203L49.8911 11.1863C50.4181 11.7125 50.714 12.4259 50.714 13.1708C50.714 13.9157 50.4181 14.6298 49.8911 15.1556L47.313 17.7338C47.963 18.9203 48.4856 20.1724 48.8727 21.4688H52.5C54.0531 21.4688 55.3125 22.7282 55.3125 24.2813V29.9063C55.3125 31.4594 54.0531 32.7188 52.5 32.7188Z" fill="#01A1DE"/>
<path d="M43.125 27.0938H41.25C41.25 20.8806 36.2131 15.8438 30 15.8438C23.7869 15.8438 18.75 20.8806 18.75 27.0938H16.875C16.875 19.845 22.7512 13.9688 30 13.9688C37.2484 13.9688 43.125 19.845 43.125 27.0938Z" fill="#01A1DE"/>
<path d="M30 34.5938C26.8934 34.5938 24.375 32.075 24.375 28.9688C24.375 25.8622 26.8934 23.3438 30 23.3438C33.1069 23.3438 35.625 25.8622 35.625 28.9688C35.6217 32.0742 33.1055 34.5905 30 34.5938ZM30 25.2188C27.9291 25.2188 26.25 26.8978 26.25 28.9688C26.25 31.0397 27.9291 32.7188 30 32.7188C32.0709 32.7188 33.75 31.0397 33.75 28.9688C33.75 26.8978 32.0709 25.2188 30 25.2188Z" fill="#01A1DE"/>
<path d="M45.9375 38.3438C42.8309 38.3438 40.3125 35.825 40.3125 32.7188C40.3125 29.6122 42.8309 27.0938 45.9375 27.0938C49.0441 27.0938 51.5625 29.6122 51.5625 32.7188C51.5592 35.8242 49.043 38.3405 45.9375 38.3438ZM45.9375 28.9688C43.8666 28.9688 42.1875 30.6478 42.1875 32.7188C42.1875 34.7897 43.8666 36.4688 45.9375 36.4688C48.0084 36.4688 49.6875 34.7897 49.6875 32.7188C49.6875 30.6478 48.0084 28.9688 45.9375 28.9688Z" fill="#01A1DE"/>
<path d="M14.0625 38.3438C10.9559 38.3438 8.4375 35.825 8.4375 32.7188C8.4375 29.6122 10.9559 27.0938 14.0625 27.0938C17.1694 27.0938 19.6875 29.6122 19.6875 32.7188C19.6842 35.8242 17.168 38.3405 14.0625 38.3438ZM14.0625 28.9688C11.9916 28.9688 10.3125 30.6478 10.3125 32.7188C10.3125 34.7897 11.9916 36.4688 14.0625 36.4688C16.1334 36.4688 17.8125 34.7897 17.8125 32.7188C17.8125 30.6478 16.1334 28.9688 14.0625 28.9688Z" fill="#01A1DE"/>
<path d="M54.4365 40.7491C53.0394 39.7889 51.3831 39.2765 49.6875 39.2813H42.1875C41.7316 39.2853 41.2764 39.3267 40.827 39.4047C40.2272 38.4665 39.4468 37.6572 38.5313 37.0225C38.3939 36.9189 38.2496 36.8248 38.0991 36.7416C36.7877 35.9473 35.283 35.5291 33.75 35.5313H26.25C23.3829 35.521 20.7114 36.9841 19.1755 39.4047C18.7251 39.3267 18.2692 39.2853 17.8125 39.2813H10.3125C8.61841 39.2765 6.9624 39.7881 5.56604 40.7472C3.25818 42.3176 1.87646 44.9275 1.875 47.7188V51.4688C1.8783 54.0286 3.36768 56.3533 5.69275 57.4256C6.55115 57.8299 7.48901 58.0368 8.4375 58.0313H17.8125V56.1563H9.375V45.8438H7.5V56.0622C7.14697 55.9915 6.8042 55.8773 6.479 55.7231C4.81824 54.9573 3.75366 53.2973 3.75 51.4688V47.7188C3.7522 45.5464 4.82849 43.5158 6.62439 42.2941C7.70947 41.5492 8.99597 41.1526 10.3125 41.1563H17.8125C17.9777 41.1563 18.137 41.1739 18.2981 41.1849C17.981 42.0792 17.8165 43.0203 17.8125 43.9688V53.3438C17.8158 55.9315 19.9127 58.028 22.5 58.0313H25.3125V43.0313H23.4375V56.1563H22.5C20.9469 56.1563 19.6875 54.8969 19.6875 53.3438V43.9688C19.6875 40.344 22.626 37.4063 26.25 37.4063H33.75C34.9563 37.407 36.1384 37.741 37.1671 38.3709C37.2623 38.4229 37.3539 38.4815 37.4407 38.546C38.3192 39.1476 39.0403 39.9515 39.5427 40.8897C40.0477 41.8375 40.3125 42.8947 40.3125 43.9688V53.3438C40.3125 54.8969 39.0531 56.1563 37.5 56.1563H36.5625V43.0313H34.6875V58.0313H37.5C40.0877 58.028 42.1842 55.9315 42.1875 53.3438V43.9688C42.1831 43.0203 42.0194 42.0795 41.7026 41.1849C41.8641 41.1739 42.0234 41.1563 42.1875 41.1563H49.6875C51.0048 41.1526 52.2924 41.5503 53.3782 42.296C55.1726 43.5184 56.2474 45.5475 56.25 47.7188V51.4688C56.2467 53.3039 55.1741 54.9687 53.5053 55.7304C53.1848 55.882 52.8472 55.9933 52.5 56.0622V45.8438H50.625V56.1563H42.1875V58.0313H51.5625C52.5055 58.0372 53.4379 57.8328 54.2915 57.4329C56.6243 56.3639 58.1213 54.0348 58.125 51.4688V47.7188C58.1235 44.9286 56.7429 42.3198 54.4365 40.7491Z" fill="#01A1DE"/>
<path d="M26.25 56.1562H33.75V58.0313H26.25V56.1562Z" fill="#01A1DE"/>
</svg>
