<svg width="81" height="81" viewBox="0 0 81 81" fill="none" xmlns="http://www.w3.org/2000/svg">
<rect width="81" height="81" rx="10" fill="#01A1DE"/>
<path d="M40.5042 49.1898C40.1157 49.1898 39.801 49.5045 39.801 49.8929V58.1786C39.801 58.567 40.1157 58.8817 40.5042 58.8817C40.8926 58.8817 41.2073 58.567 41.2073 58.1786V49.8929C41.2073 49.5045 40.8925 49.1898 40.5042 49.1898Z" fill="white"/>
<path d="M40.5 46.8371C40.8926 46.8371 41.2109 46.5188 41.2109 46.1262C41.2109 45.7336 40.8926 45.4153 40.5 45.4153C40.1073 45.4153 39.7891 45.7336 39.7891 46.1262C39.7891 46.5188 40.1073 46.8371 40.5 46.8371Z" fill="white"/>
<path d="M63.0938 37.3509V40.4413H17.9062V37.3509H27.6882C28.0766 37.3509 28.3913 37.0361 28.3913 36.6478C28.3913 36.2594 28.0766 35.9447 27.6882 35.9447H23.2187V29.7279C23.2187 29.5987 23.3238 29.4936 23.4531 29.4936H24.9777C25.2914 30.7195 26.4053 31.6286 27.7277 31.6286H30.7132C32.2781 31.6286 33.5514 30.3554 33.5514 28.7904C33.5514 27.2255 32.2782 25.9523 30.7132 25.9523H27.7277C26.4053 25.9523 25.2914 26.8613 24.9777 28.0873H23.4531C22.5485 28.0873 21.8124 28.8233 21.8124 29.7279V35.9447H17.6719C17.0257 35.9447 16.5 36.4704 16.5 37.1166V40.6757C16.5 41.3219 17.0257 41.8476 17.6719 41.8476H19.0808V52.8167C19.0808 53.2051 19.3956 53.5198 19.784 53.5198C20.1724 53.5198 20.4871 53.2051 20.4871 52.8167V41.8475H60.5128V61.5119C60.5128 61.6412 60.4077 61.7463 60.2784 61.7463H20.7215C20.5922 61.7463 20.4871 61.6412 20.4871 61.5119V55.881C20.4871 55.4926 20.1724 55.1779 19.784 55.1779C19.3956 55.1779 19.0808 55.4926 19.0808 55.881V61.5119C19.0808 62.4165 19.8169 63.1525 20.7215 63.1525H60.2784C61.183 63.1525 61.9191 62.4165 61.9191 61.5119V41.8475H63.3281C63.9743 41.8475 64.5 41.3218 64.5 40.6756V37.1165C64.5 36.4703 63.9743 35.9446 63.3281 35.9446H51.4442L51.2228 33.2414H57.5469C58.4515 33.2414 59.1876 32.5054 59.1876 31.6008V20.488C59.1876 19.5834 58.4515 18.8474 57.5469 18.8474H52.3285C51.9401 18.8474 51.6254 19.1621 51.6254 19.5505C51.6254 19.9388 51.9401 20.2537 52.3285 20.2537H57.5469C57.6762 20.2537 57.7813 20.3588 57.7813 20.488V31.6009C57.7813 31.7302 57.6762 31.8353 57.5469 31.8353H51.1075L50.7009 26.8725C50.5921 25.5422 49.4612 24.5001 48.1264 24.5001C46.7917 24.5001 45.6607 25.5421 45.5518 26.8724L45.1453 31.8353H38.7059C38.5766 31.8353 38.4715 31.7302 38.4715 31.6009V20.488C38.4715 20.3588 38.5766 20.2537 38.7059 20.2537H49.2641C49.6525 20.2537 49.9673 19.9388 49.9673 19.5505C49.9673 19.1621 49.6525 18.8474 49.2641 18.8474H38.7059C37.8013 18.8474 37.0653 19.5834 37.0653 20.488V31.6009C37.0653 32.5055 37.8013 33.2415 38.7059 33.2415H45.0301L44.8087 35.9447H30.7525C30.3641 35.9447 30.0494 36.2594 30.0494 36.6478C30.0494 37.0361 30.3641 37.3509 30.7525 37.3509H63.0938ZM46.9534 26.9873C47.0031 26.3812 47.5183 25.9064 48.1265 25.9064C48.7346 25.9064 49.2499 26.3812 49.2996 26.9873L50.0334 35.9447H46.2197L46.9534 26.9873ZM27.7277 27.3585H30.7132C31.5027 27.3585 32.1452 28.001 32.1452 28.7904C32.1452 29.58 31.5027 30.2224 30.7132 30.2224H27.7277C26.9381 30.2224 26.2957 29.5799 26.2957 28.7904C26.2957 28.0009 26.9381 27.3585 27.7277 27.3585Z" fill="white"/>
</svg>
