<svg width="270" height="215" viewBox="0 0 270 215" fill="none" xmlns="http://www.w3.org/2000/svg">
<g opacity="0.1">
<path d="M133.508 113.298H126.092V80.6144C126.092 79.0983 123.862 75.7214 122.727 74.7027C116.68 69.2726 106.81 74.2509 106.81 82.5962V135.486H133.508V199.468C133.508 200.796 132.022 204.197 131.345 205.477C124.817 217.836 107.732 217.669 101.549 205.087C101.156 204.286 99.7629 200.495 99.7629 199.865V165.596H106.808V196.299C106.808 196.89 107.403 199.433 107.633 200.172C109.746 206.946 118.364 208.834 123.204 204.026C123.999 203.236 126.09 199.68 126.09 198.678V143.411H99.7629V82.1979C99.7629 66.0225 118.837 58.4183 129.065 70.3031C130.581 72.065 133.506 77.5387 133.506 79.8197V113.296L133.508 113.298Z" fill="#01A1DE"/>
<path d="M140.924 157.671V149.748H171.886C172.827 149.748 176.152 147.514 176.893 146.664C181.378 141.511 179.692 132.647 173.55 130.142C172.897 129.876 170.551 129.147 170.033 129.147H114.226V121.818C114.226 121.777 114.743 121.224 114.782 121.224H170.775C184.598 121.224 192.071 141.145 182.279 152.134C180.554 154.07 175.043 157.671 172.63 157.671H140.926H140.924Z" fill="#01A1DE"/>
<path d="M92.347 129.145H63.2396C55.2801 129.145 50.9581 139.583 55.857 146.145C56.8234 147.441 59.9081 149.746 61.3865 149.746H118.678V157.669H60.2717C55.3079 157.669 48.8806 150.554 47.3021 145.774C43.7072 134.89 51.1937 121.22 62.4976 121.22H91.7924C91.8313 121.22 92.3489 121.773 92.3489 121.814V129.143L92.347 129.145Z" fill="#01A1DE"/>
</g>
<path opacity="0.1" d="M2.01737 84.54L3.31913 84.5627C3.48137 84.5655 3.63028 84.5047 3.73311 84.3935C3.83594 84.2824 3.88426 84.13 3.86744 83.97C3.85062 83.81 3.77004 83.6554 3.64343 83.5403C3.51682 83.4251 3.35454 83.3588 3.1923 83.356L2.15506 83.3379L4.76511 76.8552L6.5611 79.8281L5.18347 83.12L5.18073 83.1265C5.11803 83.28 5.09879 83.4517 5.12484 83.6251C5.15089 83.7984 5.22136 83.9677 5.3295 84.1167C5.43587 84.266 5.57667 84.3902 5.73825 84.4774C5.89984 84.5647 6.07674 84.6119 6.25182 84.6146L9.14138 84.665C9.32173 84.6686 9.4943 84.6261 9.64236 84.5417C9.79041 84.4574 9.90892 84.334 9.9864 84.1835C10.0656 84.0337 10.1016 83.8616 10.091 83.6837C10.0804 83.5058 10.0235 83.3281 9.92576 83.1674L7.92809 79.8604L8.30484 78.9601L11.5588 84.3712C11.6018 84.4427 11.6579 84.5069 11.7239 84.56C11.7898 84.6131 11.8643 84.6541 11.943 84.6806C12.0217 84.7071 12.1032 84.7186 12.1826 84.7145C12.2621 84.7103 12.3381 84.6906 12.4061 84.6565C12.4742 84.6224 12.533 84.5744 12.5792 84.5155C12.6255 84.4566 12.6582 84.3878 12.6755 84.3131C12.6928 84.2384 12.6944 84.1593 12.6802 84.0802C12.666 84.0012 12.6362 83.9238 12.5926 83.8525L9.13241 78.0986C9.03056 77.9287 8.88548 77.7845 8.71352 77.6823C8.54156 77.5801 8.34955 77.5239 8.15911 77.52C7.96868 77.5162 7.78739 77.5648 7.63567 77.6605C7.48395 77.7562 7.36782 77.8951 7.30036 78.0616L7.11231 78.5102L5.62091 76.0418C5.5157 75.8668 5.36596 75.7185 5.1886 75.6136C5.01124 75.5086 4.81332 75.4512 4.61718 75.4478C4.42103 75.4444 4.23448 75.4951 4.07857 75.5942C3.92266 75.6934 3.8036 75.837 3.73484 76.0088L0.915268 83.0101C0.851054 83.1679 0.831412 83.3443 0.858214 83.5225C0.885016 83.7006 0.95737 83.8745 1.06838 84.0276C1.17782 84.1812 1.32268 84.3091 1.48894 84.3988C1.6552 84.4886 1.83722 84.5372 2.01737 84.54ZM7.37633 81.1779L8.74979 83.4513L6.44211 83.411L7.37633 81.1779Z" fill="white"/>
<g opacity="0.7">
<g opacity="0.1">
<path d="M225.94 39.5898H219.922V13.0683C219.922 11.838 218.112 9.09775 217.191 8.27117C212.284 3.86485 204.275 7.90451 204.275 14.6764V57.5945H225.94V109.513C225.94 110.591 224.734 113.35 224.184 114.389C218.888 124.418 205.023 124.283 200.007 114.073C199.687 113.423 198.557 110.346 198.557 109.835V82.0271H204.274V106.942C204.274 107.421 204.757 109.485 204.944 110.084C206.658 115.581 213.651 117.114 217.578 113.212C218.224 112.571 219.92 109.686 219.92 108.872V64.0255H198.557V14.3532C198.557 1.2275 214.035 -4.94295 222.335 4.70109C223.564 6.13073 225.938 10.5724 225.938 12.4234V39.5882L225.94 39.5898Z" fill="#01A1DE"/>
<path d="M231.957 75.5959V69.1665H257.082C257.845 69.1665 260.544 67.3541 261.145 66.6642C264.784 62.4831 263.416 55.2898 258.432 53.2572C257.902 53.0417 255.998 52.4499 255.578 52.4499H210.293V46.503C210.293 46.4692 210.713 46.0205 210.745 46.0205H256.18C267.397 46.0205 273.462 62.1856 265.516 71.1027C264.116 72.6739 259.644 75.5959 257.686 75.5959H231.959H231.957Z" fill="#01A1DE"/>
<path d="M192.539 52.4485H168.92C162.461 52.4485 158.954 60.9186 162.929 66.2432C163.713 67.2949 166.216 69.1652 167.416 69.1652H213.906V75.5946H166.511C162.484 75.5946 157.268 69.8213 155.987 65.9425C153.07 57.1106 159.145 46.0176 168.318 46.0176H192.089C192.121 46.0176 192.541 46.4663 192.541 46.5V52.4469L192.539 52.4485Z" fill="#01A1DE"/>
</g>
<path opacity="0.1" d="M119.24 11.3398L120.297 11.3583C120.428 11.3606 120.549 11.3112 120.633 11.221C120.716 11.1308 120.755 11.0072 120.742 10.8773C120.728 10.7475 120.663 10.622 120.56 10.5286C120.457 10.4352 120.326 10.3814 120.194 10.3791L119.352 10.3644L121.47 5.10399L122.928 7.51637L121.81 10.1876L121.807 10.1928C121.757 10.3174 121.741 10.4567 121.762 10.5974C121.783 10.7381 121.84 10.8755 121.928 10.9964C122.014 11.1175 122.129 11.2183 122.26 11.2891C122.391 11.3599 122.534 11.3982 122.677 11.4004L125.021 11.4413C125.168 11.4442 125.308 11.4097 125.428 11.3413C125.548 11.2728 125.644 11.1727 125.707 11.0506C125.771 10.929 125.801 10.7894 125.792 10.645C125.783 10.5007 125.737 10.3564 125.658 10.226L124.037 7.54258L124.343 6.81195L126.983 11.2029C127.018 11.2609 127.063 11.313 127.117 11.3561C127.17 11.3992 127.231 11.4324 127.295 11.4539C127.359 11.4754 127.425 11.4848 127.489 11.4814C127.554 11.4781 127.615 11.4621 127.671 11.4344C127.726 11.4067 127.773 11.3678 127.811 11.32C127.849 11.2722 127.875 11.2163 127.889 11.1557C127.903 11.0951 127.904 11.0309 127.893 10.9668C127.881 10.9026 127.857 10.8398 127.822 10.782L125.014 6.11292C124.931 5.97506 124.814 5.85806 124.674 5.77511C124.535 5.69216 124.379 5.64656 124.224 5.64343C124.07 5.64031 123.923 5.67979 123.799 5.75743C123.676 5.83507 123.582 5.94778 123.527 6.08287L123.375 6.44692L122.165 4.44387C122.079 4.30194 121.958 4.1816 121.814 4.09643C121.67 4.01126 121.509 3.96466 121.35 3.96188C121.191 3.9591 121.04 4.00026 120.913 4.08071C120.787 4.16116 120.69 4.27769 120.634 4.41716L118.346 10.0984C118.294 10.2265 118.278 10.3696 118.3 10.5142C118.322 10.6587 118.38 10.7998 118.47 10.9241C118.559 11.0487 118.677 11.1525 118.812 11.2253C118.947 11.2981 119.094 11.3376 119.24 11.3398ZM123.589 8.61163L124.704 10.4564L122.831 10.4237L123.589 8.61163Z" fill="white"/>
</g>
</svg>
