<svg width="81" height="81" viewBox="0 0 81 81" fill="none" xmlns="http://www.w3.org/2000/svg">
<rect width="81" height="81" rx="10" fill="#01A1DE"/>
<path d="M61.3903 25.9903L52.8188 22.5618C52.6142 22.4797 52.3858 22.4797 52.1811 22.5618L43.6097 25.9903C43.4508 26.054 43.3146 26.1638 43.2187 26.3056C43.1227 26.4473 43.0715 26.6146 43.0714 26.7858V35.6452C43.0758 37.2731 43.4995 38.8723 44.3014 40.2889C45.1034 41.7056 46.2567 42.8917 47.6503 43.7332L52.0594 46.3783C52.1925 46.4581 52.3448 46.5002 52.5 46.5002C52.6552 46.5002 52.8074 46.4581 52.9406 46.3783L56.7857 44.0709V53.6709C56.7852 54.0436 56.637 54.4009 56.3735 54.6644C56.11 54.9279 55.7527 55.0762 55.38 55.0766H22.1914C21.8187 55.0762 21.4614 54.9279 21.1979 54.6644C20.9344 54.4009 20.7862 54.0436 20.7857 53.6709V34.5H40.5C40.7273 34.5 40.9453 34.4097 41.1061 34.249C41.2668 34.0882 41.3571 33.8702 41.3571 33.6429C41.3571 33.4156 41.2668 33.1976 41.1061 33.0368C40.9453 32.8761 40.7273 32.7858 40.5 32.7858H20.7857V30.7629C20.7862 30.3902 20.9344 30.0329 21.1979 29.7694C21.4614 29.5059 21.8187 29.3576 22.1914 29.3572H40.5C40.7273 29.3572 40.9453 29.2669 41.1061 29.1061C41.2668 28.9454 41.3571 28.7274 41.3571 28.5C41.3571 28.2727 41.2668 28.0547 41.1061 27.894C40.9453 27.7332 40.7273 27.6429 40.5 27.6429H22.1914C21.3641 27.6434 20.5708 27.9722 19.9857 28.5572C19.4007 29.1422 19.0719 29.9356 19.0714 30.7629V53.6658C19.0719 54.4931 19.4007 55.2864 19.9857 55.8714C20.5708 56.4564 21.3641 56.7853 22.1914 56.7858H55.38C56.2073 56.7853 57.0006 56.4564 57.5857 55.8714C58.1707 55.2864 58.4995 54.4931 58.5 53.6658V42.9C59.5677 42.0148 60.4282 40.9059 61.0206 39.6518C61.613 38.3976 61.923 37.0288 61.9286 35.6418V26.7858C61.9285 26.6146 61.8772 26.4473 61.7813 26.3056C61.6854 26.1638 61.5492 26.054 61.3903 25.9903ZM60.2143 35.6452C60.2108 36.9772 59.8641 38.2858 59.2077 39.4448C58.5513 40.6039 57.6073 41.5742 56.4668 42.2623L52.5 44.6435L48.5331 42.2623C47.3926 41.5742 46.4487 40.6039 45.7923 39.4448C45.1359 38.2858 44.7892 36.9772 44.7857 35.6452V27.3652L52.5 24.2795L60.2143 27.3652V35.6452Z" fill="white"/>
<path d="M49.6783 33.1835C49.5987 33.1038 49.5042 33.0406 49.4002 32.9974C49.2962 32.9542 49.1847 32.932 49.072 32.9319C48.9594 32.9318 48.8479 32.9539 48.7438 32.9969C48.6397 33.04 48.5451 33.1031 48.4654 33.1826C48.3857 33.2622 48.3225 33.3567 48.2793 33.4607C48.2361 33.5648 48.2139 33.6763 48.2138 33.7889C48.2137 33.9015 48.2358 34.0131 48.2789 34.1171C48.3219 34.2212 48.385 34.3158 48.4646 34.3955L50.7514 36.6806C50.9122 36.8413 51.1301 36.9316 51.3574 36.9316C51.5847 36.9316 51.8027 36.8413 51.9634 36.6806L56.5354 32.1086C56.6961 31.9477 56.7863 31.7295 56.7862 31.502C56.786 31.2746 56.6955 31.0565 56.5346 30.8958C56.3736 30.7351 56.1554 30.6449 55.928 30.645C55.7005 30.6452 55.4824 30.7357 55.3217 30.8966L51.3566 34.8635L49.6783 33.1835Z" fill="white"/>
<path d="M25.0714 49.9286C24.8441 49.9286 24.6261 50.0189 24.4653 50.1796C24.3046 50.3404 24.2143 50.5584 24.2143 50.7857C24.2143 51.0131 24.3046 51.2311 24.4653 51.3918C24.6261 51.5526 24.8441 51.6429 25.0714 51.6429H31.9286C32.1559 51.6429 32.3739 51.5526 32.5347 51.3918C32.6954 51.2311 32.7857 51.0131 32.7857 50.7857C32.7857 50.5584 32.6954 50.3404 32.5347 50.1796C32.3739 50.0189 32.1559 49.9286 31.9286 49.9286H25.0714Z" fill="white"/>
</svg>
